G04 #@! TF.GenerationSoftware,KiCad,Pcbnew,(5.1.4)-1*
G04 #@! TF.CreationDate,2023-05-14T00:04:49+08:00*
G04 #@! TF.ProjectId,bottom,626f7474-6f6d-42e6-9b69-6361645f7063,rev?*
G04 #@! TF.SameCoordinates,Original*
G04 #@! TF.FileFunction,Copper,L2,Bot*
G04 #@! TF.FilePolarity,Positive*
%FSLAX46Y46*%
G04 Gerber Fmt 4.6, Leading zero omitted, Abs format (unit mm)*
G04 Created by KiCad (PCBNEW (5.1.4)-1) date 2023-05-14 00:04:49*
%MOMM*%
%LPD*%
G04 APERTURE LIST*
%ADD10C,5.000000*%
%ADD11C,0.700000*%
%ADD12C,4.400000*%
%ADD13C,0.254000*%
G04 APERTURE END LIST*
D10*
X193498875Y-69856100D02*
X64293912Y-69850176D01*
X193498875Y-5562188D02*
X64293912Y-5556264D01*
X193498875Y-5562188D02*
G75*
G02X192881736Y-69850176I-617139J-32141032D01*
G01*
X63676773Y-69844252D02*
G75*
G02X64293912Y-5556264I617139J32141032D01*
G01*
X181841842Y-45639829D02*
X182794223Y-46592210D01*
X185651366Y-47544591D01*
X187556128Y-47544591D01*
X190413271Y-46592210D01*
X192318033Y-44687448D01*
X193270414Y-42782686D01*
X194222795Y-38973162D01*
X194222795Y-36116019D01*
X193270414Y-32306495D01*
X192318033Y-30401733D01*
X190413271Y-28496972D01*
X187556128Y-27544591D01*
X185651366Y-27544591D01*
X182794223Y-28496972D01*
X181841842Y-29449352D01*
X173270414Y-47544591D02*
X173270414Y-27544591D01*
X173270414Y-37068400D02*
X161841842Y-37068400D01*
X161841842Y-47544591D02*
X161841842Y-27544591D01*
X152318033Y-37068400D02*
X145651366Y-37068400D01*
X142794223Y-47544591D02*
X152318033Y-47544591D01*
X152318033Y-27544591D01*
X142794223Y-27544591D01*
X137079938Y-27544591D02*
X130413271Y-47544591D01*
X123746604Y-27544591D01*
X105651366Y-47544591D02*
X112318033Y-38020781D01*
X117079938Y-47544591D02*
X117079938Y-27544591D01*
X109460890Y-27544591D01*
X107556128Y-28496972D01*
X106603747Y-29449352D01*
X105651366Y-31354114D01*
X105651366Y-34211257D01*
X106603747Y-36116019D01*
X107556128Y-37068400D01*
X109460890Y-38020781D01*
X117079938Y-38020781D01*
X93270414Y-27544591D02*
X89460890Y-27544591D01*
X87556128Y-28496972D01*
X85651366Y-30401733D01*
X84698985Y-34211257D01*
X84698985Y-40877924D01*
X85651366Y-44687448D01*
X87556128Y-46592210D01*
X89460890Y-47544591D01*
X93270414Y-47544591D01*
X95175176Y-46592210D01*
X97079938Y-44687448D01*
X98032319Y-40877924D01*
X98032319Y-34211257D01*
X97079938Y-30401733D01*
X95175176Y-28496972D01*
X93270414Y-27544591D01*
X76127557Y-47544591D02*
X76127557Y-27544591D01*
X64698985Y-47544591D01*
X64698985Y-27544591D01*
D11*
X245642344Y8310494D03*
X244475618Y8793768D03*
X243308892Y8310494D03*
X242825618Y7143768D03*
X243308892Y5977042D03*
X244475618Y5493768D03*
X245642344Y5977042D03*
X246125618Y7143768D03*
D12*
X244475618Y7143768D03*
D11*
X245642344Y-5977044D03*
X244475618Y-5493770D03*
X243308892Y-5977044D03*
X242825618Y-7143770D03*
X243308892Y-8310496D03*
X244475618Y-8793770D03*
X245642344Y-8310496D03*
X246125618Y-7143770D03*
D12*
X244475618Y-7143770D03*
D11*
X265486142Y-82970986D03*
X264319416Y-82487712D03*
X263152690Y-82970986D03*
X262669416Y-84137712D03*
X263152690Y-85304438D03*
X264319416Y-85787712D03*
X265486142Y-85304438D03*
X265969416Y-84137712D03*
D12*
X264319416Y-84137712D03*
D11*
X265486142Y-11533306D03*
X264319416Y-11050032D03*
X263152690Y-11533306D03*
X262669416Y-12700032D03*
X263152690Y-13866758D03*
X264319416Y-14350032D03*
X265486142Y-13866758D03*
X265969416Y-12700032D03*
D12*
X264319416Y-12700032D03*
D11*
X-5977042Y-82970986D03*
X-7143768Y-82487712D03*
X-8310494Y-82970986D03*
X-8793768Y-84137712D03*
X-8310494Y-85304438D03*
X-7143768Y-85787712D03*
X-5977042Y-85304438D03*
X-5493768Y-84137712D03*
D12*
X-7143768Y-84137712D03*
D11*
X-5977042Y-11533306D03*
X-7143768Y-11050032D03*
X-8310494Y-11533306D03*
X-8793768Y-12700032D03*
X-8310494Y-13866758D03*
X-7143768Y-14350032D03*
X-5977042Y-13866758D03*
X-5493768Y-12700032D03*
D12*
X-7143768Y-12700032D03*
D11*
X-5977042Y-5977044D03*
X-7143768Y-5493770D03*
X-8310494Y-5977044D03*
X-8793768Y-7143770D03*
X-8310494Y-8310496D03*
X-7143768Y-8793770D03*
X-5977042Y-8310496D03*
X-5493768Y-7143770D03*
D12*
X-7143768Y-7143770D03*
D11*
X-5977042Y8310494D03*
X-7143768Y8793768D03*
X-8310494Y8310494D03*
X-8793768Y7143768D03*
X-8310494Y5977042D03*
X-7143768Y5493768D03*
X-5977042Y5977042D03*
X-5493768Y7143768D03*
D12*
X-7143768Y7143768D03*
D13*
G36*
X242070015Y8112920D02*
G01*
X241927166Y7624988D01*
X241882252Y7118563D01*
X241937000Y6613107D01*
X242089306Y6128044D01*
X242305310Y5723928D01*
X242621578Y5469333D01*
X244296013Y7143768D01*
X244281871Y7157911D01*
X244461476Y7337516D01*
X244475618Y7323373D01*
X244489761Y7337516D01*
X244669366Y7157911D01*
X244655223Y7143768D01*
X246329658Y5469333D01*
X246645926Y5723928D01*
X246881221Y6174616D01*
X247024070Y6662548D01*
X247068984Y7168973D01*
X247014236Y7674429D01*
X246861930Y8159492D01*
X246747795Y8373024D01*
X265056825Y8373024D01*
X265196686Y8359310D01*
X265277020Y8335056D01*
X265351115Y8295659D01*
X265416147Y8242620D01*
X265469636Y8177963D01*
X265509551Y8104142D01*
X265534366Y8023977D01*
X265548672Y7887864D01*
X265548672Y-10430224D01*
X265288568Y-10294429D01*
X264800636Y-10151580D01*
X264294211Y-10106666D01*
X263788755Y-10161414D01*
X263303692Y-10313720D01*
X262899576Y-10529724D01*
X262644981Y-10845992D01*
X264319416Y-12520427D01*
X264333559Y-12506285D01*
X264513164Y-12685890D01*
X264499021Y-12700032D01*
X264513164Y-12714175D01*
X264333559Y-12893780D01*
X264319416Y-12879637D01*
X262644981Y-14554072D01*
X262899576Y-14870340D01*
X263350264Y-15105635D01*
X263838196Y-15248484D01*
X264344621Y-15293398D01*
X264850077Y-15238650D01*
X265335140Y-15086344D01*
X265548672Y-14972209D01*
X265548673Y-81867904D01*
X265288568Y-81732109D01*
X264800636Y-81589260D01*
X264294211Y-81544346D01*
X263788755Y-81599094D01*
X263303692Y-81751400D01*
X262899576Y-81967404D01*
X262644981Y-82283672D01*
X264319416Y-83958107D01*
X264333559Y-83943965D01*
X264513164Y-84123570D01*
X264499021Y-84137712D01*
X264513164Y-84151855D01*
X264333559Y-84331460D01*
X264319416Y-84317317D01*
X264305274Y-84331460D01*
X264125669Y-84151855D01*
X264139811Y-84137712D01*
X262465376Y-82463277D01*
X262149108Y-82717872D01*
X261913813Y-83168560D01*
X261770964Y-83656492D01*
X261726050Y-84162917D01*
X261780798Y-84668373D01*
X261933104Y-85153436D01*
X262047239Y-85366968D01*
X-4873960Y-85366968D01*
X-4738165Y-85106864D01*
X-4595316Y-84618932D01*
X-4550402Y-84112507D01*
X-4605150Y-83607051D01*
X-4757456Y-83121988D01*
X-4973460Y-82717872D01*
X-5289728Y-82463277D01*
X-6964163Y-84137712D01*
X-6950021Y-84151855D01*
X-7129626Y-84331460D01*
X-7143768Y-84317317D01*
X-7157911Y-84331460D01*
X-7337516Y-84151855D01*
X-7323373Y-84137712D01*
X-7337516Y-84123570D01*
X-7157911Y-83943965D01*
X-7143768Y-83958107D01*
X-5469333Y-82283672D01*
X-5723928Y-81967404D01*
X-6174616Y-81732109D01*
X-6662548Y-81589260D01*
X-7168973Y-81544346D01*
X-7674429Y-81599094D01*
X-8159492Y-81751400D01*
X-8373024Y-81865535D01*
X-8373024Y-38138535D01*
X28524590Y-38138535D01*
X28527898Y-38349052D01*
X28528567Y-38391662D01*
X28642088Y-40632614D01*
X28663712Y-40884850D01*
X28933278Y-43112422D01*
X28933278Y-43112425D01*
X28972445Y-43362538D01*
X29396739Y-45565864D01*
X29396742Y-45565881D01*
X29417417Y-45656153D01*
X29453261Y-45812655D01*
X29453265Y-45812669D01*
X30030222Y-47981031D01*
X30087599Y-48169881D01*
X30103816Y-48223259D01*
X30830630Y-50346109D01*
X30889357Y-50499899D01*
X30920942Y-50582613D01*
X31794068Y-52649592D01*
X31900658Y-52879221D01*
X31900664Y-52879232D01*
X32915837Y-54880247D01*
X32915842Y-54880259D01*
X32916902Y-54882179D01*
X33038190Y-55101892D01*
X33038203Y-55101913D01*
X34190475Y-57027218D01*
X34190487Y-57027240D01*
X34252382Y-57122915D01*
X34327998Y-57239800D01*
X34328008Y-57239813D01*
X35611793Y-59080076D01*
X35763796Y-59282526D01*
X35763808Y-59282540D01*
X37172822Y-61028749D01*
X37172835Y-61028767D01*
X37219994Y-61083208D01*
X37338591Y-61220120D01*
X37338605Y-61220134D01*
X38865996Y-62863803D01*
X38866009Y-62863818D01*
X39044708Y-63043142D01*
X40683066Y-64576289D01*
X40869960Y-64739327D01*
X40873838Y-64742710D01*
X42615133Y-66157822D01*
X42615150Y-66157837D01*
X42817067Y-66310545D01*
X44652838Y-67600746D01*
X44652851Y-67600756D01*
X44864929Y-67739008D01*
X46786243Y-68898019D01*
X47007449Y-69021140D01*
X49004919Y-70043297D01*
X49004930Y-70043303D01*
X49234185Y-70150694D01*
X51298105Y-71031030D01*
X51534292Y-71122167D01*
X51534301Y-71122170D01*
X53654574Y-71856379D01*
X53654591Y-71856386D01*
X53780008Y-71894969D01*
X53896563Y-71930826D01*
X53896575Y-71930829D01*
X56062912Y-72515352D01*
X56309485Y-72572732D01*
X56309513Y-72572736D01*
X58511313Y-73004713D01*
X58511335Y-73004718D01*
X58717938Y-73037810D01*
X58761309Y-73044757D01*
X58761313Y-73044757D01*
X60987929Y-73322097D01*
X61240088Y-73344602D01*
X63480629Y-73465945D01*
X63733744Y-73470805D01*
X63943276Y-73460190D01*
X64115568Y-73477167D01*
X193676886Y-73483108D01*
X194017315Y-73449594D01*
X194599923Y-73434847D01*
X194708921Y-73428276D01*
X194817953Y-73422752D01*
X197053551Y-73231093D01*
X197053577Y-73231092D01*
X197274491Y-73204358D01*
X197304906Y-73200677D01*
X197304910Y-73200676D01*
X199521686Y-72853538D01*
X199521714Y-72853535D01*
X199770308Y-72805663D01*
X201957503Y-72304728D01*
X202202152Y-72239632D01*
X202202176Y-72239624D01*
X204349064Y-71587350D01*
X204349072Y-71587348D01*
X204588584Y-71505345D01*
X206684751Y-70704896D01*
X206684776Y-70704887D01*
X206801617Y-70655531D01*
X206917985Y-70606376D01*
X206918019Y-70606359D01*
X208953208Y-69661655D01*
X208953232Y-69661645D01*
X209103013Y-69585657D01*
X209179001Y-69547106D01*
X209179013Y-69547099D01*
X211143389Y-68462705D01*
X211360618Y-68332696D01*
X213244579Y-67113907D01*
X213334277Y-67051333D01*
X213452210Y-66969062D01*
X215246562Y-65621824D01*
X215443583Y-65462848D01*
X215443597Y-65462835D01*
X217139585Y-63993725D01*
X217325036Y-63821393D01*
X218914427Y-62237541D01*
X218918500Y-62233189D01*
X219087406Y-62052692D01*
X220562441Y-60361827D01*
X220722103Y-60165362D01*
X222075588Y-58375734D01*
X222075595Y-58375725D01*
X222221164Y-58168601D01*
X223446522Y-56288907D01*
X223450586Y-56282171D01*
X223577289Y-56072132D01*
X224668540Y-54111540D01*
X224783867Y-53886172D01*
X224783868Y-53886170D01*
X225735695Y-51854237D01*
X225735697Y-51854234D01*
X225822977Y-51649609D01*
X225835020Y-51621374D01*
X225835021Y-51621370D01*
X226642790Y-49527986D01*
X226682317Y-49413840D01*
X226725628Y-49288765D01*
X227385404Y-47144133D01*
X227392445Y-47118040D01*
X227400857Y-47086862D01*
X227451354Y-46899713D01*
X227451358Y-46899694D01*
X227959919Y-44714278D01*
X227969333Y-44666296D01*
X228008658Y-44465854D01*
X228363537Y-42250270D01*
X228365846Y-42231734D01*
X228394828Y-41999052D01*
X228594292Y-39764110D01*
X228607983Y-39511319D01*
X228607983Y-39511317D01*
X228651058Y-37267905D01*
X228647081Y-37014775D01*
X228647081Y-37014771D01*
X228533560Y-34773827D01*
X228511936Y-34521590D01*
X228242370Y-32294016D01*
X228242370Y-32294015D01*
X228203203Y-32043902D01*
X227778905Y-29840558D01*
X227722387Y-29593786D01*
X227722385Y-29593779D01*
X227145426Y-27425408D01*
X227071832Y-27183180D01*
X227071829Y-27183171D01*
X226345018Y-25060331D01*
X226254706Y-24823826D01*
X226254695Y-24823802D01*
X225381580Y-22756848D01*
X225274990Y-22527219D01*
X225274984Y-22527208D01*
X224259806Y-20526182D01*
X224137458Y-20304548D01*
X223500532Y-19240323D01*
X244743714Y-19240323D01*
X244743714Y-19625677D01*
X244818893Y-20003628D01*
X244966362Y-20359649D01*
X245180453Y-20680060D01*
X245452940Y-20952547D01*
X245773351Y-21166638D01*
X246129372Y-21314107D01*
X246507323Y-21389286D01*
X246892677Y-21389286D01*
X247270628Y-21314107D01*
X247626649Y-21166638D01*
X247947060Y-20952547D01*
X248219547Y-20680060D01*
X248433638Y-20359649D01*
X248581107Y-20003628D01*
X248656286Y-19625677D01*
X248656286Y-19240323D01*
X248581107Y-18862372D01*
X248433638Y-18506351D01*
X248219547Y-18185940D01*
X247947060Y-17913453D01*
X247626649Y-17699362D01*
X247270628Y-17551893D01*
X246892677Y-17476714D01*
X246507323Y-17476714D01*
X246129372Y-17551893D01*
X245773351Y-17699362D01*
X245452940Y-17913453D01*
X245180453Y-18185940D01*
X244966362Y-18506351D01*
X244818893Y-18862372D01*
X244743714Y-19240323D01*
X223500532Y-19240323D01*
X222985173Y-18379222D01*
X222985161Y-18379200D01*
X222847650Y-18166641D01*
X221563855Y-16326364D01*
X221411852Y-16123915D01*
X220002812Y-14377673D01*
X219958654Y-14326695D01*
X219837058Y-14186321D01*
X218479335Y-12725237D01*
X261726050Y-12725237D01*
X261780798Y-13230693D01*
X261933104Y-13715756D01*
X262149108Y-14119872D01*
X262465376Y-14374467D01*
X264139811Y-12700032D01*
X262465376Y-11025597D01*
X262149108Y-11280192D01*
X261913813Y-11730880D01*
X261770964Y-12218812D01*
X261726050Y-12725237D01*
X218479335Y-12725237D01*
X218309652Y-12542637D01*
X218309639Y-12542622D01*
X218130940Y-12363298D01*
X216492583Y-10830151D01*
X216301810Y-10663729D01*
X216301807Y-10663726D01*
X214560515Y-9248618D01*
X214560498Y-9248603D01*
X214358581Y-9095895D01*
X214219021Y-8997810D01*
X242801183Y-8997810D01*
X243055778Y-9314078D01*
X243506466Y-9549373D01*
X243994398Y-9692222D01*
X244500823Y-9737136D01*
X245006279Y-9682388D01*
X245491342Y-9530082D01*
X245895458Y-9314078D01*
X246150053Y-8997810D01*
X244475618Y-7323375D01*
X242801183Y-8997810D01*
X214219021Y-8997810D01*
X212522810Y-7805694D01*
X212522797Y-7805684D01*
X212324792Y-7676607D01*
X212310718Y-7667432D01*
X212310709Y-7667427D01*
X211484417Y-7168975D01*
X241882252Y-7168975D01*
X241937000Y-7674431D01*
X242089306Y-8159494D01*
X242305310Y-8563610D01*
X242621578Y-8818205D01*
X244296013Y-7143770D01*
X244655223Y-7143770D01*
X246329658Y-8818205D01*
X246645926Y-8563610D01*
X246881221Y-8112922D01*
X247024070Y-7624990D01*
X247068984Y-7118565D01*
X247014236Y-6613109D01*
X246861930Y-6128046D01*
X246645926Y-5723930D01*
X246329658Y-5469335D01*
X244655223Y-7143770D01*
X244296013Y-7143770D01*
X242621578Y-5469335D01*
X242305310Y-5723930D01*
X242070015Y-6174618D01*
X241927166Y-6662550D01*
X241882252Y-7168975D01*
X211484417Y-7168975D01*
X210389405Y-6508421D01*
X210168200Y-6385300D01*
X210168188Y-6385294D01*
X208170729Y-5363143D01*
X208170718Y-5363137D01*
X208014010Y-5289730D01*
X242801183Y-5289730D01*
X244475618Y-6964165D01*
X246150053Y-5289730D01*
X245895458Y-4973462D01*
X245444770Y-4738167D01*
X244956838Y-4595318D01*
X244450413Y-4550404D01*
X243944957Y-4605152D01*
X243459894Y-4757458D01*
X243055778Y-4973462D01*
X242801183Y-5289730D01*
X208014010Y-5289730D01*
X207998240Y-5282343D01*
X207941462Y-5255746D01*
X207941448Y-5255741D01*
X205877544Y-4375410D01*
X205641356Y-4284273D01*
X203521074Y-3550061D01*
X203521057Y-3550054D01*
X203381175Y-3507021D01*
X203279086Y-3475614D01*
X203279066Y-3475609D01*
X201112743Y-2891090D01*
X201112736Y-2891088D01*
X201060241Y-2878872D01*
X200866163Y-2833708D01*
X200866135Y-2833704D01*
X198664341Y-2401728D01*
X198664314Y-2401722D01*
X198414339Y-2361683D01*
X196187719Y-2084343D01*
X195935561Y-2061838D01*
X195935559Y-2061838D01*
X193774878Y-1944820D01*
X193677219Y-1935197D01*
X64115901Y-1929256D01*
X64070071Y-1933768D01*
X62575725Y-1971593D01*
X62466721Y-1978165D01*
X62357696Y-1983688D01*
X60122097Y-2175347D01*
X60122071Y-2175348D01*
X60011614Y-2188715D01*
X59870743Y-2205762D01*
X59870711Y-2205768D01*
X57653962Y-2552902D01*
X57653934Y-2552905D01*
X57405340Y-2600777D01*
X55218158Y-3101709D01*
X55218149Y-3101711D01*
X55213275Y-3103008D01*
X54973497Y-3166808D01*
X54973473Y-3166816D01*
X52826584Y-3819090D01*
X52826576Y-3819092D01*
X52587064Y-3901095D01*
X50490872Y-4701553D01*
X50257664Y-4800064D01*
X50257641Y-4800076D01*
X48222440Y-5744785D01*
X48222416Y-5744795D01*
X48089377Y-5812290D01*
X47996647Y-5859334D01*
X47996635Y-5859341D01*
X46032259Y-6943735D01*
X45815030Y-7073744D01*
X43931069Y-8292533D01*
X43723439Y-8437378D01*
X41929086Y-9784616D01*
X41732065Y-9943592D01*
X41732051Y-9943605D01*
X40036066Y-11412713D01*
X40036064Y-11412715D01*
X39850612Y-11585047D01*
X38261221Y-13168899D01*
X38088243Y-13353747D01*
X38088233Y-13353759D01*
X36613207Y-15044613D01*
X36453544Y-15241078D01*
X36453531Y-15241097D01*
X35100052Y-17030717D01*
X35060658Y-17086769D01*
X34954484Y-17237839D01*
X33729130Y-19117527D01*
X33729125Y-19117534D01*
X33694260Y-19175330D01*
X33598359Y-19334307D01*
X33598353Y-19334319D01*
X32507115Y-21294887D01*
X32507108Y-21294899D01*
X32477131Y-21353480D01*
X32391781Y-21520267D01*
X32391776Y-21520280D01*
X31439952Y-23552204D01*
X31439951Y-23552206D01*
X31340627Y-23785069D01*
X30532861Y-25878447D01*
X30532859Y-25878451D01*
X30450020Y-26117675D01*
X29790244Y-28262307D01*
X29724294Y-28506727D01*
X29724290Y-28506746D01*
X29215731Y-30692155D01*
X29215729Y-30692161D01*
X29166990Y-30940586D01*
X28812113Y-33156159D01*
X28812111Y-33156168D01*
X28780820Y-33407388D01*
X28581356Y-35642330D01*
X28571303Y-35827944D01*
X28567665Y-35895124D01*
X28524590Y-38138535D01*
X-8373024Y-38138535D01*
X-8373024Y-19240323D01*
X8518714Y-19240323D01*
X8518714Y-19625677D01*
X8593893Y-20003628D01*
X8741362Y-20359649D01*
X8955453Y-20680060D01*
X9227940Y-20952547D01*
X9548351Y-21166638D01*
X9904372Y-21314107D01*
X10282323Y-21389286D01*
X10667677Y-21389286D01*
X11045628Y-21314107D01*
X11401649Y-21166638D01*
X11722060Y-20952547D01*
X11994547Y-20680060D01*
X12208638Y-20359649D01*
X12356107Y-20003628D01*
X12431286Y-19625677D01*
X12431286Y-19240323D01*
X12356107Y-18862372D01*
X12208638Y-18506351D01*
X11994547Y-18185940D01*
X11722060Y-17913453D01*
X11401649Y-17699362D01*
X11045628Y-17551893D01*
X10667677Y-17476714D01*
X10282323Y-17476714D01*
X9904372Y-17551893D01*
X9548351Y-17699362D01*
X9227940Y-17913453D01*
X8955453Y-18185940D01*
X8741362Y-18506351D01*
X8593893Y-18862372D01*
X8518714Y-19240323D01*
X-8373024Y-19240323D01*
X-8373024Y-14969840D01*
X-8112920Y-15105635D01*
X-7624988Y-15248484D01*
X-7118563Y-15293398D01*
X-6613107Y-15238650D01*
X-6128044Y-15086344D01*
X-5723928Y-14870340D01*
X-5469333Y-14554072D01*
X-7143768Y-12879637D01*
X-7157911Y-12893780D01*
X-7337516Y-12714175D01*
X-7323373Y-12700032D01*
X-6964163Y-12700032D01*
X-5289728Y-14374467D01*
X-4973460Y-14119872D01*
X-4738165Y-13669184D01*
X-4595316Y-13181252D01*
X-4550402Y-12674827D01*
X-4605150Y-12169371D01*
X-4757456Y-11684308D01*
X-4973460Y-11280192D01*
X-5289728Y-11025597D01*
X-6964163Y-12700032D01*
X-7323373Y-12700032D01*
X-7337516Y-12685890D01*
X-7157911Y-12506285D01*
X-7143768Y-12520427D01*
X-5469333Y-10845992D01*
X-5723928Y-10529724D01*
X-6174616Y-10294429D01*
X-6662548Y-10151580D01*
X-7168973Y-10106666D01*
X-7674429Y-10161414D01*
X-8159492Y-10313720D01*
X-8373024Y-10427855D01*
X-8373024Y-9413578D01*
X-8112920Y-9549373D01*
X-7624988Y-9692222D01*
X-7118563Y-9737136D01*
X-6613107Y-9682388D01*
X-6128044Y-9530082D01*
X-5723928Y-9314078D01*
X-5469333Y-8997810D01*
X-7143768Y-7323375D01*
X-7157911Y-7337518D01*
X-7337516Y-7157913D01*
X-7323373Y-7143770D01*
X-6964163Y-7143770D01*
X-5289728Y-8818205D01*
X-4973460Y-8563610D01*
X-4738165Y-8112922D01*
X-4595316Y-7624990D01*
X-4550402Y-7118565D01*
X-4605150Y-6613109D01*
X-4757456Y-6128046D01*
X-4973460Y-5723930D01*
X-5289728Y-5469335D01*
X-6964163Y-7143770D01*
X-7323373Y-7143770D01*
X-7337516Y-7129628D01*
X-7157911Y-6950023D01*
X-7143768Y-6964165D01*
X-5469333Y-5289730D01*
X-5723928Y-4973462D01*
X-6174616Y-4738167D01*
X-6662548Y-4595318D01*
X-7168973Y-4550404D01*
X-7674429Y-4605152D01*
X-8159492Y-4757458D01*
X-8373024Y-4871593D01*
X-8373024Y4873960D01*
X-8112920Y4738165D01*
X-7624988Y4595316D01*
X-7118563Y4550402D01*
X-6613107Y4605150D01*
X-6128044Y4757456D01*
X-5723928Y4973460D01*
X-5469333Y5289728D01*
X242801183Y5289728D01*
X243055778Y4973460D01*
X243506466Y4738165D01*
X243994398Y4595316D01*
X244500823Y4550402D01*
X245006279Y4605150D01*
X245491342Y4757456D01*
X245895458Y4973460D01*
X246150053Y5289728D01*
X244475618Y6964163D01*
X242801183Y5289728D01*
X-5469333Y5289728D01*
X-7143768Y6964163D01*
X-7157911Y6950021D01*
X-7337516Y7129626D01*
X-7323373Y7143768D01*
X-7337516Y7157911D01*
X-7157911Y7337516D01*
X-7143768Y7323373D01*
X-7129626Y7337516D01*
X-6950021Y7157911D01*
X-6964163Y7143768D01*
X-5289728Y5469333D01*
X-4973460Y5723928D01*
X-4738165Y6174616D01*
X-4595316Y6662548D01*
X-4550402Y7168973D01*
X-4605150Y7674429D01*
X-4757456Y8159492D01*
X-4871591Y8373024D01*
X242205810Y8373024D01*
X242070015Y8112920D01*
X242070015Y8112920D01*
G37*
X242070015Y8112920D02*
X241927166Y7624988D01*
X241882252Y7118563D01*
X241937000Y6613107D01*
X242089306Y6128044D01*
X242305310Y5723928D01*
X242621578Y5469333D01*
X244296013Y7143768D01*
X244281871Y7157911D01*
X244461476Y7337516D01*
X244475618Y7323373D01*
X244489761Y7337516D01*
X244669366Y7157911D01*
X244655223Y7143768D01*
X246329658Y5469333D01*
X246645926Y5723928D01*
X246881221Y6174616D01*
X247024070Y6662548D01*
X247068984Y7168973D01*
X247014236Y7674429D01*
X246861930Y8159492D01*
X246747795Y8373024D01*
X265056825Y8373024D01*
X265196686Y8359310D01*
X265277020Y8335056D01*
X265351115Y8295659D01*
X265416147Y8242620D01*
X265469636Y8177963D01*
X265509551Y8104142D01*
X265534366Y8023977D01*
X265548672Y7887864D01*
X265548672Y-10430224D01*
X265288568Y-10294429D01*
X264800636Y-10151580D01*
X264294211Y-10106666D01*
X263788755Y-10161414D01*
X263303692Y-10313720D01*
X262899576Y-10529724D01*
X262644981Y-10845992D01*
X264319416Y-12520427D01*
X264333559Y-12506285D01*
X264513164Y-12685890D01*
X264499021Y-12700032D01*
X264513164Y-12714175D01*
X264333559Y-12893780D01*
X264319416Y-12879637D01*
X262644981Y-14554072D01*
X262899576Y-14870340D01*
X263350264Y-15105635D01*
X263838196Y-15248484D01*
X264344621Y-15293398D01*
X264850077Y-15238650D01*
X265335140Y-15086344D01*
X265548672Y-14972209D01*
X265548673Y-81867904D01*
X265288568Y-81732109D01*
X264800636Y-81589260D01*
X264294211Y-81544346D01*
X263788755Y-81599094D01*
X263303692Y-81751400D01*
X262899576Y-81967404D01*
X262644981Y-82283672D01*
X264319416Y-83958107D01*
X264333559Y-83943965D01*
X264513164Y-84123570D01*
X264499021Y-84137712D01*
X264513164Y-84151855D01*
X264333559Y-84331460D01*
X264319416Y-84317317D01*
X264305274Y-84331460D01*
X264125669Y-84151855D01*
X264139811Y-84137712D01*
X262465376Y-82463277D01*
X262149108Y-82717872D01*
X261913813Y-83168560D01*
X261770964Y-83656492D01*
X261726050Y-84162917D01*
X261780798Y-84668373D01*
X261933104Y-85153436D01*
X262047239Y-85366968D01*
X-4873960Y-85366968D01*
X-4738165Y-85106864D01*
X-4595316Y-84618932D01*
X-4550402Y-84112507D01*
X-4605150Y-83607051D01*
X-4757456Y-83121988D01*
X-4973460Y-82717872D01*
X-5289728Y-82463277D01*
X-6964163Y-84137712D01*
X-6950021Y-84151855D01*
X-7129626Y-84331460D01*
X-7143768Y-84317317D01*
X-7157911Y-84331460D01*
X-7337516Y-84151855D01*
X-7323373Y-84137712D01*
X-7337516Y-84123570D01*
X-7157911Y-83943965D01*
X-7143768Y-83958107D01*
X-5469333Y-82283672D01*
X-5723928Y-81967404D01*
X-6174616Y-81732109D01*
X-6662548Y-81589260D01*
X-7168973Y-81544346D01*
X-7674429Y-81599094D01*
X-8159492Y-81751400D01*
X-8373024Y-81865535D01*
X-8373024Y-38138535D01*
X28524590Y-38138535D01*
X28527898Y-38349052D01*
X28528567Y-38391662D01*
X28642088Y-40632614D01*
X28663712Y-40884850D01*
X28933278Y-43112422D01*
X28933278Y-43112425D01*
X28972445Y-43362538D01*
X29396739Y-45565864D01*
X29396742Y-45565881D01*
X29417417Y-45656153D01*
X29453261Y-45812655D01*
X29453265Y-45812669D01*
X30030222Y-47981031D01*
X30087599Y-48169881D01*
X30103816Y-48223259D01*
X30830630Y-50346109D01*
X30889357Y-50499899D01*
X30920942Y-50582613D01*
X31794068Y-52649592D01*
X31900658Y-52879221D01*
X31900664Y-52879232D01*
X32915837Y-54880247D01*
X32915842Y-54880259D01*
X32916902Y-54882179D01*
X33038190Y-55101892D01*
X33038203Y-55101913D01*
X34190475Y-57027218D01*
X34190487Y-57027240D01*
X34252382Y-57122915D01*
X34327998Y-57239800D01*
X34328008Y-57239813D01*
X35611793Y-59080076D01*
X35763796Y-59282526D01*
X35763808Y-59282540D01*
X37172822Y-61028749D01*
X37172835Y-61028767D01*
X37219994Y-61083208D01*
X37338591Y-61220120D01*
X37338605Y-61220134D01*
X38865996Y-62863803D01*
X38866009Y-62863818D01*
X39044708Y-63043142D01*
X40683066Y-64576289D01*
X40869960Y-64739327D01*
X40873838Y-64742710D01*
X42615133Y-66157822D01*
X42615150Y-66157837D01*
X42817067Y-66310545D01*
X44652838Y-67600746D01*
X44652851Y-67600756D01*
X44864929Y-67739008D01*
X46786243Y-68898019D01*
X47007449Y-69021140D01*
X49004919Y-70043297D01*
X49004930Y-70043303D01*
X49234185Y-70150694D01*
X51298105Y-71031030D01*
X51534292Y-71122167D01*
X51534301Y-71122170D01*
X53654574Y-71856379D01*
X53654591Y-71856386D01*
X53780008Y-71894969D01*
X53896563Y-71930826D01*
X53896575Y-71930829D01*
X56062912Y-72515352D01*
X56309485Y-72572732D01*
X56309513Y-72572736D01*
X58511313Y-73004713D01*
X58511335Y-73004718D01*
X58717938Y-73037810D01*
X58761309Y-73044757D01*
X58761313Y-73044757D01*
X60987929Y-73322097D01*
X61240088Y-73344602D01*
X63480629Y-73465945D01*
X63733744Y-73470805D01*
X63943276Y-73460190D01*
X64115568Y-73477167D01*
X193676886Y-73483108D01*
X194017315Y-73449594D01*
X194599923Y-73434847D01*
X194708921Y-73428276D01*
X194817953Y-73422752D01*
X197053551Y-73231093D01*
X197053577Y-73231092D01*
X197274491Y-73204358D01*
X197304906Y-73200677D01*
X197304910Y-73200676D01*
X199521686Y-72853538D01*
X199521714Y-72853535D01*
X199770308Y-72805663D01*
X201957503Y-72304728D01*
X202202152Y-72239632D01*
X202202176Y-72239624D01*
X204349064Y-71587350D01*
X204349072Y-71587348D01*
X204588584Y-71505345D01*
X206684751Y-70704896D01*
X206684776Y-70704887D01*
X206801617Y-70655531D01*
X206917985Y-70606376D01*
X206918019Y-70606359D01*
X208953208Y-69661655D01*
X208953232Y-69661645D01*
X209103013Y-69585657D01*
X209179001Y-69547106D01*
X209179013Y-69547099D01*
X211143389Y-68462705D01*
X211360618Y-68332696D01*
X213244579Y-67113907D01*
X213334277Y-67051333D01*
X213452210Y-66969062D01*
X215246562Y-65621824D01*
X215443583Y-65462848D01*
X215443597Y-65462835D01*
X217139585Y-63993725D01*
X217325036Y-63821393D01*
X218914427Y-62237541D01*
X218918500Y-62233189D01*
X219087406Y-62052692D01*
X220562441Y-60361827D01*
X220722103Y-60165362D01*
X222075588Y-58375734D01*
X222075595Y-58375725D01*
X222221164Y-58168601D01*
X223446522Y-56288907D01*
X223450586Y-56282171D01*
X223577289Y-56072132D01*
X224668540Y-54111540D01*
X224783867Y-53886172D01*
X224783868Y-53886170D01*
X225735695Y-51854237D01*
X225735697Y-51854234D01*
X225822977Y-51649609D01*
X225835020Y-51621374D01*
X225835021Y-51621370D01*
X226642790Y-49527986D01*
X226682317Y-49413840D01*
X226725628Y-49288765D01*
X227385404Y-47144133D01*
X227392445Y-47118040D01*
X227400857Y-47086862D01*
X227451354Y-46899713D01*
X227451358Y-46899694D01*
X227959919Y-44714278D01*
X227969333Y-44666296D01*
X228008658Y-44465854D01*
X228363537Y-42250270D01*
X228365846Y-42231734D01*
X228394828Y-41999052D01*
X228594292Y-39764110D01*
X228607983Y-39511319D01*
X228607983Y-39511317D01*
X228651058Y-37267905D01*
X228647081Y-37014775D01*
X228647081Y-37014771D01*
X228533560Y-34773827D01*
X228511936Y-34521590D01*
X228242370Y-32294016D01*
X228242370Y-32294015D01*
X228203203Y-32043902D01*
X227778905Y-29840558D01*
X227722387Y-29593786D01*
X227722385Y-29593779D01*
X227145426Y-27425408D01*
X227071832Y-27183180D01*
X227071829Y-27183171D01*
X226345018Y-25060331D01*
X226254706Y-24823826D01*
X226254695Y-24823802D01*
X225381580Y-22756848D01*
X225274990Y-22527219D01*
X225274984Y-22527208D01*
X224259806Y-20526182D01*
X224137458Y-20304548D01*
X223500532Y-19240323D01*
X244743714Y-19240323D01*
X244743714Y-19625677D01*
X244818893Y-20003628D01*
X244966362Y-20359649D01*
X245180453Y-20680060D01*
X245452940Y-20952547D01*
X245773351Y-21166638D01*
X246129372Y-21314107D01*
X246507323Y-21389286D01*
X246892677Y-21389286D01*
X247270628Y-21314107D01*
X247626649Y-21166638D01*
X247947060Y-20952547D01*
X248219547Y-20680060D01*
X248433638Y-20359649D01*
X248581107Y-20003628D01*
X248656286Y-19625677D01*
X248656286Y-19240323D01*
X248581107Y-18862372D01*
X248433638Y-18506351D01*
X248219547Y-18185940D01*
X247947060Y-17913453D01*
X247626649Y-17699362D01*
X247270628Y-17551893D01*
X246892677Y-17476714D01*
X246507323Y-17476714D01*
X246129372Y-17551893D01*
X245773351Y-17699362D01*
X245452940Y-17913453D01*
X245180453Y-18185940D01*
X244966362Y-18506351D01*
X244818893Y-18862372D01*
X244743714Y-19240323D01*
X223500532Y-19240323D01*
X222985173Y-18379222D01*
X222985161Y-18379200D01*
X222847650Y-18166641D01*
X221563855Y-16326364D01*
X221411852Y-16123915D01*
X220002812Y-14377673D01*
X219958654Y-14326695D01*
X219837058Y-14186321D01*
X218479335Y-12725237D01*
X261726050Y-12725237D01*
X261780798Y-13230693D01*
X261933104Y-13715756D01*
X262149108Y-14119872D01*
X262465376Y-14374467D01*
X264139811Y-12700032D01*
X262465376Y-11025597D01*
X262149108Y-11280192D01*
X261913813Y-11730880D01*
X261770964Y-12218812D01*
X261726050Y-12725237D01*
X218479335Y-12725237D01*
X218309652Y-12542637D01*
X218309639Y-12542622D01*
X218130940Y-12363298D01*
X216492583Y-10830151D01*
X216301810Y-10663729D01*
X216301807Y-10663726D01*
X214560515Y-9248618D01*
X214560498Y-9248603D01*
X214358581Y-9095895D01*
X214219021Y-8997810D01*
X242801183Y-8997810D01*
X243055778Y-9314078D01*
X243506466Y-9549373D01*
X243994398Y-9692222D01*
X244500823Y-9737136D01*
X245006279Y-9682388D01*
X245491342Y-9530082D01*
X245895458Y-9314078D01*
X246150053Y-8997810D01*
X244475618Y-7323375D01*
X242801183Y-8997810D01*
X214219021Y-8997810D01*
X212522810Y-7805694D01*
X212522797Y-7805684D01*
X212324792Y-7676607D01*
X212310718Y-7667432D01*
X212310709Y-7667427D01*
X211484417Y-7168975D01*
X241882252Y-7168975D01*
X241937000Y-7674431D01*
X242089306Y-8159494D01*
X242305310Y-8563610D01*
X242621578Y-8818205D01*
X244296013Y-7143770D01*
X244655223Y-7143770D01*
X246329658Y-8818205D01*
X246645926Y-8563610D01*
X246881221Y-8112922D01*
X247024070Y-7624990D01*
X247068984Y-7118565D01*
X247014236Y-6613109D01*
X246861930Y-6128046D01*
X246645926Y-5723930D01*
X246329658Y-5469335D01*
X244655223Y-7143770D01*
X244296013Y-7143770D01*
X242621578Y-5469335D01*
X242305310Y-5723930D01*
X242070015Y-6174618D01*
X241927166Y-6662550D01*
X241882252Y-7168975D01*
X211484417Y-7168975D01*
X210389405Y-6508421D01*
X210168200Y-6385300D01*
X210168188Y-6385294D01*
X208170729Y-5363143D01*
X208170718Y-5363137D01*
X208014010Y-5289730D01*
X242801183Y-5289730D01*
X244475618Y-6964165D01*
X246150053Y-5289730D01*
X245895458Y-4973462D01*
X245444770Y-4738167D01*
X244956838Y-4595318D01*
X244450413Y-4550404D01*
X243944957Y-4605152D01*
X243459894Y-4757458D01*
X243055778Y-4973462D01*
X242801183Y-5289730D01*
X208014010Y-5289730D01*
X207998240Y-5282343D01*
X207941462Y-5255746D01*
X207941448Y-5255741D01*
X205877544Y-4375410D01*
X205641356Y-4284273D01*
X203521074Y-3550061D01*
X203521057Y-3550054D01*
X203381175Y-3507021D01*
X203279086Y-3475614D01*
X203279066Y-3475609D01*
X201112743Y-2891090D01*
X201112736Y-2891088D01*
X201060241Y-2878872D01*
X200866163Y-2833708D01*
X200866135Y-2833704D01*
X198664341Y-2401728D01*
X198664314Y-2401722D01*
X198414339Y-2361683D01*
X196187719Y-2084343D01*
X195935561Y-2061838D01*
X195935559Y-2061838D01*
X193774878Y-1944820D01*
X193677219Y-1935197D01*
X64115901Y-1929256D01*
X64070071Y-1933768D01*
X62575725Y-1971593D01*
X62466721Y-1978165D01*
X62357696Y-1983688D01*
X60122097Y-2175347D01*
X60122071Y-2175348D01*
X60011614Y-2188715D01*
X59870743Y-2205762D01*
X59870711Y-2205768D01*
X57653962Y-2552902D01*
X57653934Y-2552905D01*
X57405340Y-2600777D01*
X55218158Y-3101709D01*
X55218149Y-3101711D01*
X55213275Y-3103008D01*
X54973497Y-3166808D01*
X54973473Y-3166816D01*
X52826584Y-3819090D01*
X52826576Y-3819092D01*
X52587064Y-3901095D01*
X50490872Y-4701553D01*
X50257664Y-4800064D01*
X50257641Y-4800076D01*
X48222440Y-5744785D01*
X48222416Y-5744795D01*
X48089377Y-5812290D01*
X47996647Y-5859334D01*
X47996635Y-5859341D01*
X46032259Y-6943735D01*
X45815030Y-7073744D01*
X43931069Y-8292533D01*
X43723439Y-8437378D01*
X41929086Y-9784616D01*
X41732065Y-9943592D01*
X41732051Y-9943605D01*
X40036066Y-11412713D01*
X40036064Y-11412715D01*
X39850612Y-11585047D01*
X38261221Y-13168899D01*
X38088243Y-13353747D01*
X38088233Y-13353759D01*
X36613207Y-15044613D01*
X36453544Y-15241078D01*
X36453531Y-15241097D01*
X35100052Y-17030717D01*
X35060658Y-17086769D01*
X34954484Y-17237839D01*
X33729130Y-19117527D01*
X33729125Y-19117534D01*
X33694260Y-19175330D01*
X33598359Y-19334307D01*
X33598353Y-19334319D01*
X32507115Y-21294887D01*
X32507108Y-21294899D01*
X32477131Y-21353480D01*
X32391781Y-21520267D01*
X32391776Y-21520280D01*
X31439952Y-23552204D01*
X31439951Y-23552206D01*
X31340627Y-23785069D01*
X30532861Y-25878447D01*
X30532859Y-25878451D01*
X30450020Y-26117675D01*
X29790244Y-28262307D01*
X29724294Y-28506727D01*
X29724290Y-28506746D01*
X29215731Y-30692155D01*
X29215729Y-30692161D01*
X29166990Y-30940586D01*
X28812113Y-33156159D01*
X28812111Y-33156168D01*
X28780820Y-33407388D01*
X28581356Y-35642330D01*
X28571303Y-35827944D01*
X28567665Y-35895124D01*
X28524590Y-38138535D01*
X-8373024Y-38138535D01*
X-8373024Y-19240323D01*
X8518714Y-19240323D01*
X8518714Y-19625677D01*
X8593893Y-20003628D01*
X8741362Y-20359649D01*
X8955453Y-20680060D01*
X9227940Y-20952547D01*
X9548351Y-21166638D01*
X9904372Y-21314107D01*
X10282323Y-21389286D01*
X10667677Y-21389286D01*
X11045628Y-21314107D01*
X11401649Y-21166638D01*
X11722060Y-20952547D01*
X11994547Y-20680060D01*
X12208638Y-20359649D01*
X12356107Y-20003628D01*
X12431286Y-19625677D01*
X12431286Y-19240323D01*
X12356107Y-18862372D01*
X12208638Y-18506351D01*
X11994547Y-18185940D01*
X11722060Y-17913453D01*
X11401649Y-17699362D01*
X11045628Y-17551893D01*
X10667677Y-17476714D01*
X10282323Y-17476714D01*
X9904372Y-17551893D01*
X9548351Y-17699362D01*
X9227940Y-17913453D01*
X8955453Y-18185940D01*
X8741362Y-18506351D01*
X8593893Y-18862372D01*
X8518714Y-19240323D01*
X-8373024Y-19240323D01*
X-8373024Y-14969840D01*
X-8112920Y-15105635D01*
X-7624988Y-15248484D01*
X-7118563Y-15293398D01*
X-6613107Y-15238650D01*
X-6128044Y-15086344D01*
X-5723928Y-14870340D01*
X-5469333Y-14554072D01*
X-7143768Y-12879637D01*
X-7157911Y-12893780D01*
X-7337516Y-12714175D01*
X-7323373Y-12700032D01*
X-6964163Y-12700032D01*
X-5289728Y-14374467D01*
X-4973460Y-14119872D01*
X-4738165Y-13669184D01*
X-4595316Y-13181252D01*
X-4550402Y-12674827D01*
X-4605150Y-12169371D01*
X-4757456Y-11684308D01*
X-4973460Y-11280192D01*
X-5289728Y-11025597D01*
X-6964163Y-12700032D01*
X-7323373Y-12700032D01*
X-7337516Y-12685890D01*
X-7157911Y-12506285D01*
X-7143768Y-12520427D01*
X-5469333Y-10845992D01*
X-5723928Y-10529724D01*
X-6174616Y-10294429D01*
X-6662548Y-10151580D01*
X-7168973Y-10106666D01*
X-7674429Y-10161414D01*
X-8159492Y-10313720D01*
X-8373024Y-10427855D01*
X-8373024Y-9413578D01*
X-8112920Y-9549373D01*
X-7624988Y-9692222D01*
X-7118563Y-9737136D01*
X-6613107Y-9682388D01*
X-6128044Y-9530082D01*
X-5723928Y-9314078D01*
X-5469333Y-8997810D01*
X-7143768Y-7323375D01*
X-7157911Y-7337518D01*
X-7337516Y-7157913D01*
X-7323373Y-7143770D01*
X-6964163Y-7143770D01*
X-5289728Y-8818205D01*
X-4973460Y-8563610D01*
X-4738165Y-8112922D01*
X-4595316Y-7624990D01*
X-4550402Y-7118565D01*
X-4605150Y-6613109D01*
X-4757456Y-6128046D01*
X-4973460Y-5723930D01*
X-5289728Y-5469335D01*
X-6964163Y-7143770D01*
X-7323373Y-7143770D01*
X-7337516Y-7129628D01*
X-7157911Y-6950023D01*
X-7143768Y-6964165D01*
X-5469333Y-5289730D01*
X-5723928Y-4973462D01*
X-6174616Y-4738167D01*
X-6662548Y-4595318D01*
X-7168973Y-4550404D01*
X-7674429Y-4605152D01*
X-8159492Y-4757458D01*
X-8373024Y-4871593D01*
X-8373024Y4873960D01*
X-8112920Y4738165D01*
X-7624988Y4595316D01*
X-7118563Y4550402D01*
X-6613107Y4605150D01*
X-6128044Y4757456D01*
X-5723928Y4973460D01*
X-5469333Y5289728D01*
X242801183Y5289728D01*
X243055778Y4973460D01*
X243506466Y4738165D01*
X243994398Y4595316D01*
X244500823Y4550402D01*
X245006279Y4605150D01*
X245491342Y4757456D01*
X245895458Y4973460D01*
X246150053Y5289728D01*
X244475618Y6964163D01*
X242801183Y5289728D01*
X-5469333Y5289728D01*
X-7143768Y6964163D01*
X-7157911Y6950021D01*
X-7337516Y7129626D01*
X-7323373Y7143768D01*
X-7337516Y7157911D01*
X-7157911Y7337516D01*
X-7143768Y7323373D01*
X-7129626Y7337516D01*
X-6950021Y7157911D01*
X-6964163Y7143768D01*
X-5289728Y5469333D01*
X-4973460Y5723928D01*
X-4738165Y6174616D01*
X-4595316Y6662548D01*
X-4550402Y7168973D01*
X-4605150Y7674429D01*
X-4757456Y8159492D01*
X-4871591Y8373024D01*
X242205810Y8373024D01*
X242070015Y8112920D01*
M02*
