G04 #@! TF.GenerationSoftware,KiCad,Pcbnew,(5.1.4)-1*
G04 #@! TF.CreationDate,2023-05-14T00:04:49+08:00*
G04 #@! TF.ProjectId,bottom,626f7474-6f6d-42e6-9b69-6361645f7063,rev?*
G04 #@! TF.SameCoordinates,Original*
G04 #@! TF.FileFunction,Soldermask,Top*
G04 #@! TF.FilePolarity,Negative*
%FSLAX46Y46*%
G04 Gerber Fmt 4.6, Leading zero omitted, Abs format (unit mm)*
G04 Created by KiCad (PCBNEW (5.1.4)-1) date 2023-05-14 00:04:49*
%MOMM*%
%LPD*%
G04 APERTURE LIST*
%ADD10C,1.000000*%
G04 APERTURE END LIST*
D10*
G36*
X-6867888Y-81897488D02*
G01*
X-6487175Y-81973216D01*
X-6077519Y-82142901D01*
X-5708839Y-82389246D01*
X-5395302Y-82702783D01*
X-5148957Y-83071463D01*
X-4979272Y-83481119D01*
X-4892768Y-83916008D01*
X-4892768Y-84359416D01*
X-4979272Y-84794305D01*
X-5148957Y-85203961D01*
X-5395302Y-85572641D01*
X-5708839Y-85886178D01*
X-6077519Y-86132523D01*
X-6487175Y-86302208D01*
X-6867888Y-86377936D01*
X-6922063Y-86388712D01*
X-7365473Y-86388712D01*
X-7419648Y-86377936D01*
X-7800361Y-86302208D01*
X-8210017Y-86132523D01*
X-8578697Y-85886178D01*
X-8892234Y-85572641D01*
X-9138579Y-85203961D01*
X-9308264Y-84794305D01*
X-9394768Y-84359416D01*
X-9394768Y-83916008D01*
X-9308264Y-83481119D01*
X-9138579Y-83071463D01*
X-8892234Y-82702783D01*
X-8578697Y-82389246D01*
X-8210017Y-82142901D01*
X-7800361Y-81973216D01*
X-7419648Y-81897488D01*
X-7365473Y-81886712D01*
X-6922063Y-81886712D01*
X-6867888Y-81897488D01*
X-6867888Y-81897488D01*
G37*
G36*
X264595296Y-81897488D02*
G01*
X264976009Y-81973216D01*
X265385665Y-82142901D01*
X265754345Y-82389246D01*
X266067882Y-82702783D01*
X266314227Y-83071463D01*
X266483912Y-83481119D01*
X266570416Y-83916008D01*
X266570416Y-84359416D01*
X266483912Y-84794305D01*
X266314227Y-85203961D01*
X266067882Y-85572641D01*
X265754345Y-85886178D01*
X265385665Y-86132523D01*
X264976009Y-86302208D01*
X264595296Y-86377936D01*
X264541121Y-86388712D01*
X264097711Y-86388712D01*
X264043536Y-86377936D01*
X263662823Y-86302208D01*
X263253167Y-86132523D01*
X262884487Y-85886178D01*
X262570950Y-85572641D01*
X262324605Y-85203961D01*
X262154920Y-84794305D01*
X262068416Y-84359416D01*
X262068416Y-83916008D01*
X262154920Y-83481119D01*
X262324605Y-83071463D01*
X262570950Y-82702783D01*
X262884487Y-82389246D01*
X263253167Y-82142901D01*
X263662823Y-81973216D01*
X264043536Y-81897488D01*
X264097711Y-81886712D01*
X264541121Y-81886712D01*
X264595296Y-81897488D01*
X264595296Y-81897488D01*
G37*
G36*
X264595296Y-10459808D02*
G01*
X264976009Y-10535536D01*
X265385665Y-10705221D01*
X265754345Y-10951566D01*
X266067882Y-11265103D01*
X266314227Y-11633783D01*
X266483912Y-12043439D01*
X266570416Y-12478328D01*
X266570416Y-12921736D01*
X266483912Y-13356625D01*
X266314227Y-13766281D01*
X266067882Y-14134961D01*
X265754345Y-14448498D01*
X265385665Y-14694843D01*
X264976009Y-14864528D01*
X264595296Y-14940256D01*
X264541121Y-14951032D01*
X264097711Y-14951032D01*
X264043536Y-14940256D01*
X263662823Y-14864528D01*
X263253167Y-14694843D01*
X262884487Y-14448498D01*
X262570950Y-14134961D01*
X262324605Y-13766281D01*
X262154920Y-13356625D01*
X262068416Y-12921736D01*
X262068416Y-12478328D01*
X262154920Y-12043439D01*
X262324605Y-11633783D01*
X262570950Y-11265103D01*
X262884487Y-10951566D01*
X263253167Y-10705221D01*
X263662823Y-10535536D01*
X264043536Y-10459808D01*
X264097711Y-10449032D01*
X264541121Y-10449032D01*
X264595296Y-10459808D01*
X264595296Y-10459808D01*
G37*
G36*
X-6867888Y-10459808D02*
G01*
X-6487175Y-10535536D01*
X-6077519Y-10705221D01*
X-5708839Y-10951566D01*
X-5395302Y-11265103D01*
X-5148957Y-11633783D01*
X-4979272Y-12043439D01*
X-4892768Y-12478328D01*
X-4892768Y-12921736D01*
X-4979272Y-13356625D01*
X-5148957Y-13766281D01*
X-5395302Y-14134961D01*
X-5708839Y-14448498D01*
X-6077519Y-14694843D01*
X-6487175Y-14864528D01*
X-6867888Y-14940256D01*
X-6922063Y-14951032D01*
X-7365473Y-14951032D01*
X-7419648Y-14940256D01*
X-7800361Y-14864528D01*
X-8210017Y-14694843D01*
X-8578697Y-14448498D01*
X-8892234Y-14134961D01*
X-9138579Y-13766281D01*
X-9308264Y-13356625D01*
X-9394768Y-12921736D01*
X-9394768Y-12478328D01*
X-9308264Y-12043439D01*
X-9138579Y-11633783D01*
X-8892234Y-11265103D01*
X-8578697Y-10951566D01*
X-8210017Y-10705221D01*
X-7800361Y-10535536D01*
X-7419648Y-10459808D01*
X-7365473Y-10449032D01*
X-6922063Y-10449032D01*
X-6867888Y-10459808D01*
X-6867888Y-10459808D01*
G37*
G36*
X244751498Y-4903546D02*
G01*
X245132211Y-4979274D01*
X245541867Y-5148959D01*
X245910547Y-5395304D01*
X246224084Y-5708841D01*
X246470429Y-6077521D01*
X246640114Y-6487177D01*
X246726618Y-6922066D01*
X246726618Y-7365474D01*
X246640114Y-7800363D01*
X246470429Y-8210019D01*
X246224084Y-8578699D01*
X245910547Y-8892236D01*
X245541867Y-9138581D01*
X245132211Y-9308266D01*
X244751498Y-9383994D01*
X244697323Y-9394770D01*
X244253913Y-9394770D01*
X244199738Y-9383994D01*
X243819025Y-9308266D01*
X243409369Y-9138581D01*
X243040689Y-8892236D01*
X242727152Y-8578699D01*
X242480807Y-8210019D01*
X242311122Y-7800363D01*
X242224618Y-7365474D01*
X242224618Y-6922066D01*
X242311122Y-6487177D01*
X242480807Y-6077521D01*
X242727152Y-5708841D01*
X243040689Y-5395304D01*
X243409369Y-5148959D01*
X243819025Y-4979274D01*
X244199738Y-4903546D01*
X244253913Y-4892770D01*
X244697323Y-4892770D01*
X244751498Y-4903546D01*
X244751498Y-4903546D01*
G37*
G36*
X-6867888Y-4903546D02*
G01*
X-6487175Y-4979274D01*
X-6077519Y-5148959D01*
X-5708839Y-5395304D01*
X-5395302Y-5708841D01*
X-5148957Y-6077521D01*
X-4979272Y-6487177D01*
X-4892768Y-6922066D01*
X-4892768Y-7365474D01*
X-4979272Y-7800363D01*
X-5148957Y-8210019D01*
X-5395302Y-8578699D01*
X-5708839Y-8892236D01*
X-6077519Y-9138581D01*
X-6487175Y-9308266D01*
X-6867888Y-9383994D01*
X-6922063Y-9394770D01*
X-7365473Y-9394770D01*
X-7419648Y-9383994D01*
X-7800361Y-9308266D01*
X-8210017Y-9138581D01*
X-8578697Y-8892236D01*
X-8892234Y-8578699D01*
X-9138579Y-8210019D01*
X-9308264Y-7800363D01*
X-9394768Y-7365474D01*
X-9394768Y-6922066D01*
X-9308264Y-6487177D01*
X-9138579Y-6077521D01*
X-8892234Y-5708841D01*
X-8578697Y-5395304D01*
X-8210017Y-5148959D01*
X-7800361Y-4979274D01*
X-7419648Y-4903546D01*
X-7365473Y-4892770D01*
X-6922063Y-4892770D01*
X-6867888Y-4903546D01*
X-6867888Y-4903546D01*
G37*
G36*
X244751498Y9383992D02*
G01*
X245132211Y9308264D01*
X245541867Y9138579D01*
X245910547Y8892234D01*
X246224084Y8578697D01*
X246470429Y8210017D01*
X246640114Y7800361D01*
X246726618Y7365472D01*
X246726618Y6922064D01*
X246640114Y6487175D01*
X246470429Y6077519D01*
X246224084Y5708839D01*
X245910547Y5395302D01*
X245541867Y5148957D01*
X245132211Y4979272D01*
X244751498Y4903544D01*
X244697323Y4892768D01*
X244253913Y4892768D01*
X244199738Y4903544D01*
X243819025Y4979272D01*
X243409369Y5148957D01*
X243040689Y5395302D01*
X242727152Y5708839D01*
X242480807Y6077519D01*
X242311122Y6487175D01*
X242224618Y6922064D01*
X242224618Y7365472D01*
X242311122Y7800361D01*
X242480807Y8210017D01*
X242727152Y8578697D01*
X243040689Y8892234D01*
X243409369Y9138579D01*
X243819025Y9308264D01*
X244199738Y9383992D01*
X244253913Y9394768D01*
X244697323Y9394768D01*
X244751498Y9383992D01*
X244751498Y9383992D01*
G37*
G36*
X-6867888Y9383992D02*
G01*
X-6487175Y9308264D01*
X-6077519Y9138579D01*
X-5708839Y8892234D01*
X-5395302Y8578697D01*
X-5148957Y8210017D01*
X-4979272Y7800361D01*
X-4892768Y7365472D01*
X-4892768Y6922064D01*
X-4979272Y6487175D01*
X-5148957Y6077519D01*
X-5395302Y5708839D01*
X-5708839Y5395302D01*
X-6077519Y5148957D01*
X-6487175Y4979272D01*
X-6867888Y4903544D01*
X-6922063Y4892768D01*
X-7365473Y4892768D01*
X-7419648Y4903544D01*
X-7800361Y4979272D01*
X-8210017Y5148957D01*
X-8578697Y5395302D01*
X-8892234Y5708839D01*
X-9138579Y6077519D01*
X-9308264Y6487175D01*
X-9394768Y6922064D01*
X-9394768Y7365472D01*
X-9308264Y7800361D01*
X-9138579Y8210017D01*
X-8892234Y8578697D01*
X-8578697Y8892234D01*
X-8210017Y9138579D01*
X-7800361Y9308264D01*
X-7419648Y9383992D01*
X-7365473Y9394768D01*
X-6922063Y9394768D01*
X-6867888Y9383992D01*
X-6867888Y9383992D01*
G37*
M02*
