G04 #@! TF.GenerationSoftware,KiCad,Pcbnew,(5.1.4)-1*
G04 #@! TF.CreationDate,2023-05-14T00:04:49+08:00*
G04 #@! TF.ProjectId,bottom,626f7474-6f6d-42e6-9b69-6361645f7063,rev?*
G04 #@! TF.SameCoordinates,Original*
G04 #@! TF.FileFunction,Legend,Bot*
G04 #@! TF.FilePolarity,Positive*
%FSLAX46Y46*%
G04 Gerber Fmt 4.6, Leading zero omitted, Abs format (unit mm)*
G04 Created by KiCad (PCBNEW (5.1.4)-1) date 2023-05-14 00:04:49*
%MOMM*%
%LPD*%
G04 APERTURE LIST*
%ADD10C,0.802000*%
%ADD11C,4.502000*%
G04 APERTURE END LIST*
%LPC*%
D10*
X245642344Y8310494D03*
X244475618Y8793768D03*
X243308892Y8310494D03*
X242825618Y7143768D03*
X243308892Y5977042D03*
X244475618Y5493768D03*
X245642344Y5977042D03*
X246125618Y7143768D03*
D11*
X244475618Y7143768D03*
D10*
X245642344Y-5977044D03*
X244475618Y-5493770D03*
X243308892Y-5977044D03*
X242825618Y-7143770D03*
X243308892Y-8310496D03*
X244475618Y-8793770D03*
X245642344Y-8310496D03*
X246125618Y-7143770D03*
D11*
X244475618Y-7143770D03*
D10*
X265486142Y-82970986D03*
X264319416Y-82487712D03*
X263152690Y-82970986D03*
X262669416Y-84137712D03*
X263152690Y-85304438D03*
X264319416Y-85787712D03*
X265486142Y-85304438D03*
X265969416Y-84137712D03*
D11*
X264319416Y-84137712D03*
D10*
X265486142Y-11533306D03*
X264319416Y-11050032D03*
X263152690Y-11533306D03*
X262669416Y-12700032D03*
X263152690Y-13866758D03*
X264319416Y-14350032D03*
X265486142Y-13866758D03*
X265969416Y-12700032D03*
D11*
X264319416Y-12700032D03*
D10*
X-5977042Y-82970986D03*
X-7143768Y-82487712D03*
X-8310494Y-82970986D03*
X-8793768Y-84137712D03*
X-8310494Y-85304438D03*
X-7143768Y-85787712D03*
X-5977042Y-85304438D03*
X-5493768Y-84137712D03*
D11*
X-7143768Y-84137712D03*
D10*
X-5977042Y-11533306D03*
X-7143768Y-11050032D03*
X-8310494Y-11533306D03*
X-8793768Y-12700032D03*
X-8310494Y-13866758D03*
X-7143768Y-14350032D03*
X-5977042Y-13866758D03*
X-5493768Y-12700032D03*
D11*
X-7143768Y-12700032D03*
D10*
X-5977042Y-5977044D03*
X-7143768Y-5493770D03*
X-8310494Y-5977044D03*
X-8793768Y-7143770D03*
X-8310494Y-8310496D03*
X-7143768Y-8793770D03*
X-5977042Y-8310496D03*
X-5493768Y-7143770D03*
D11*
X-7143768Y-7143770D03*
D10*
X-5977042Y8310494D03*
X-7143768Y8793768D03*
X-8310494Y8310494D03*
X-8793768Y7143768D03*
X-8310494Y5977042D03*
X-7143768Y5493768D03*
X-5977042Y5977042D03*
X-5493768Y7143768D03*
D11*
X-7143768Y7143768D03*
M02*
