M48
; DRILL file {KiCad (5.1.4)-1} date 14 May 2023 12:04:50 am
; FORMAT={-:-/ absolute / inch / decimal}
; #@! TF.CreationDate,2023-05-14T00:04:50+08:00
; #@! TF.GenerationSoftware,Kicad,Pcbnew,(5.1.4)-1
; #@! TF.FileFunction,Plated,1,2,PTH
FMAT,2
INCH
T1C0.0157
T2C0.0866
%
G90
G05
T1
X-0.3462Y-3.3125
X-0.3272Y-3.2666
X-0.3272Y-3.3584
X-0.2813Y-3.2475
X-0.2813Y-3.3775
X-0.2353Y-3.2666
X-0.2353Y-3.3584
X-0.2163Y-3.3125
X-0.3462Y0.2813
X-0.3272Y0.3272
X-0.3272Y0.2353
X-0.2813Y0.3462
X-0.2813Y0.2163
X-0.2353Y0.3272
X-0.2353Y0.2353
X-0.2163Y0.2813
X10.3413Y-0.5
X10.3603Y-0.4541
X10.3603Y-0.5459
X10.4063Y-0.435
X10.4063Y-0.565
X10.4522Y-0.4541
X10.4522Y-0.5459
X10.4712Y-0.5
X-0.3462Y-0.2813
X-0.3272Y-0.2353
X-0.3272Y-0.3272
X-0.2813Y-0.2163
X-0.2813Y-0.3462
X-0.2353Y-0.2353
X-0.2353Y-0.3272
X-0.2163Y-0.2813
X9.5601Y0.2813
X9.5791Y0.3272
X9.5791Y0.2353
X9.625Y0.3462
X9.625Y0.2163
X9.671Y0.3272
X9.671Y0.2353
X9.69Y0.2813
X-0.3462Y-0.5
X-0.3272Y-0.4541
X-0.3272Y-0.5459
X-0.2813Y-0.435
X-0.2813Y-0.565
X-0.2353Y-0.4541
X-0.2353Y-0.5459
X-0.2163Y-0.5
X10.3413Y-3.3125
X10.3603Y-3.2666
X10.3603Y-3.3584
X10.4063Y-3.2475
X10.4063Y-3.3775
X10.4522Y-3.2666
X10.4522Y-3.3584
X10.4712Y-3.3125
X9.5601Y-0.2813
X9.5791Y-0.2353
X9.5791Y-0.3272
X9.625Y-0.2163
X9.625Y-0.3462
X9.671Y-0.2353
X9.671Y-0.3272
X9.69Y-0.2813
T2
X10.4063Y-0.5
X-0.2813Y-0.2813
X9.625Y0.2813
X-0.2813Y-0.5
X10.4063Y-3.3125
X9.625Y-0.2813
X-0.2813Y-3.3125
X-0.2813Y0.2813
T0
M30
