M48
; DRILL file {KiCad (5.1.4)-1} date 14 May 2023 12:18:45 am
; FORMAT={-:-/ absolute / inch / decimal}
; #@! TF.CreationDate,2023-05-14T00:18:45+08:00
; #@! TF.GenerationSoftware,Kicad,Pcbnew,(5.1.4)-1
; #@! TF.FileFunction,Plated,1,2,PTH
FMAT,2
INCH
T1C0.0157
T2C0.0236
T3C0.0276
T4C0.0295
T5C0.0315
T6C0.0354
T7C0.0394
T8C0.0433
T9C0.0579
T10C0.0591
T11C0.0866
%
G90
G05
T1
X2.09Y0.1215
X2.25Y-1.9062
X2.25Y-2.1875
X2.2875Y-1.6812
X2.625Y-0.7812
X2.625Y-1.1562
X3.3012Y0.3312
X3.875Y-1.1562
X4.2188Y-1.9062
X4.6875Y-2.6562
X-0.3462Y0.2813
X-0.3272Y0.3272
X-0.3272Y0.2353
X-0.2813Y0.3462
X-0.2813Y0.2163
X-0.2353Y0.3272
X-0.2353Y0.2353
X-0.2163Y0.2813
X9.5601Y-0.2813
X9.5791Y-0.2353
X9.5791Y-0.3272
X9.625Y-0.2163
X9.625Y-0.3462
X9.671Y-0.2353
X9.671Y-0.3272
X9.69Y-0.2813
X-0.3462Y-0.2813
X-0.3272Y-0.2353
X-0.3272Y-0.3272
X-0.2813Y-0.2163
X-0.2813Y-0.3462
X-0.2353Y-0.2353
X-0.2353Y-0.3272
X-0.2163Y-0.2813
X-0.3462Y-0.5
X-0.3272Y-0.4541
X-0.3272Y-0.5459
X-0.2813Y-0.435
X-0.2813Y-0.565
X-0.2353Y-0.4541
X-0.2353Y-0.5459
X-0.2163Y-0.5
X10.3413Y-0.5
X10.3603Y-0.4541
X10.3603Y-0.5459
X10.4063Y-0.435
X10.4063Y-0.565
X10.4522Y-0.4541
X10.4522Y-0.5459
X10.4712Y-0.5
X8.8827Y0.187
X8.8829Y0.1348
X8.9161Y0.187
X8.9163Y0.1348
X8.9496Y0.187
X8.9498Y0.1348
X8.9831Y0.187
X8.9833Y0.1348
X9.0165Y0.187
X9.0167Y0.1348
X9.05Y0.187
X9.0502Y0.1348
X9.0835Y0.187
X9.0837Y0.1348
X9.1171Y0.187
X9.1171Y0.1348
X9.5601Y0.2813
X9.5791Y0.3272
X9.5791Y0.2353
X9.625Y0.3462
X9.625Y0.2163
X9.671Y0.3272
X9.671Y0.2353
X9.69Y0.2813
X10.3413Y-3.3125
X10.3603Y-3.2666
X10.3603Y-3.3584
X10.4063Y-3.2475
X10.4063Y-3.3775
X10.4522Y-3.2666
X10.4522Y-3.3584
X10.4712Y-3.3125
X-0.3462Y-3.3125
X-0.3272Y-3.2666
X-0.3272Y-3.3584
X-0.2813Y-3.2475
X-0.2813Y-3.3775
X-0.2353Y-3.2666
X-0.2353Y-3.3584
X-0.2163Y-3.3125
T2
X9.38Y-0.28
X9.4391Y-0.28
T3
X8.95Y0.025
X8.95Y-0.275
X8.65Y0.025
X8.65Y-0.275
X8.55Y0.025
X8.55Y-0.275
X9.15Y0.025
X9.15Y-0.275
X9.05Y0.025
X9.05Y-0.275
X9.25Y0.025
X9.25Y-0.275
T4
X3.08Y0.27
X3.08Y-0.03
X0.77Y0.21
X0.77Y-0.09
X3.96Y0.15
X3.96Y-0.15
X2.2Y0.21
X2.2Y-0.09
X-0.1Y0.27
X-0.1Y-0.03
X2.75Y0.09
X2.75Y-0.21
X4.73Y0.03
X4.73Y-0.27
X2.97Y0.21
X2.97Y-0.09
X2.42Y0.09
X2.42Y-0.21
X3.41Y0.15
X3.41Y-0.15
X1.32Y0.09
X1.32Y-0.21
X0.67Y0.15
X0.67Y-0.15
X2.53Y0.03
X2.53Y-0.27
X0.01Y0.21
X0.01Y-0.09
X4.29Y0.27
X4.29Y-0.03
X4.18Y0.27
X4.18Y-0.03
X8.85Y0.025
X8.85Y-0.275
X1.43Y0.03
X1.43Y-0.27
X4.4Y0.21
X4.4Y-0.09
X4.95Y0.09
X4.95Y-0.21
X4.07Y0.21
X4.07Y-0.09
X0.45Y0.03
X0.45Y-0.27
X3.74Y0.03
X3.74Y-0.27
X1.87Y0.21
X1.87Y-0.09
X3.3Y0.21
X3.3Y-0.09
X0.88Y0.27
X0.88Y-0.03
X2.86Y0.145
X2.86Y-0.155
X8.75Y0.025
X8.75Y-0.275
X3.63Y0.03
X3.63Y-0.27
X4.84Y0.03
X4.84Y-0.27
X3.52Y0.09
X3.52Y-0.21
X0.99Y0.27
X0.99Y-0.03
X1.98Y0.27
X1.98Y-0.03
X4.62Y0.09
X4.62Y-0.21
X5.17Y0.21
X5.17Y-0.09
X3.19Y0.27
X3.19Y-0.03
X1.76Y0.15
X1.76Y-0.15
X0.23Y0.09
X0.23Y-0.21
X0.56Y0.09
X0.56Y-0.21
X1.54Y0.03
X1.54Y-0.27
X2.64Y0.03
X2.64Y-0.27
X5.28Y0.27
X5.28Y-0.03
X0.12Y0.15
X0.12Y-0.15
X1.1Y0.21
X1.1Y-0.09
X4.51Y0.15
X4.51Y-0.15
X1.21Y0.15
X1.21Y-0.15
X1.65Y0.09
X1.65Y-0.21
X2.09Y0.27
X2.09Y-0.03
X3.85Y0.09
X3.85Y-0.21
X0.34Y0.03
X0.34Y-0.27
X5.06Y0.15
X5.06Y-0.15
X2.31Y0.15
X2.31Y-0.15
T5
X9.4Y0.0906
X9.4Y-0.1063
X7.1Y-0.15
X7.1984Y-0.15
X6.2Y0.29
X6.2Y-0.31
X6.3Y0.29
X6.3Y-0.31
X6.4Y0.29
X6.4Y-0.31
X6.5Y0.29
X6.5Y-0.31
X6.6Y0.29
X6.6Y-0.31
X6.7Y0.29
X6.7Y-0.31
X6.8Y0.29
X6.8Y-0.31
X6.9Y0.29
X6.9Y-0.31
X7.0Y0.29
X7.0Y-0.31
X7.1Y0.29
X7.1Y-0.31
X7.2Y0.29
X7.2Y-0.31
X7.3Y0.29
X7.3Y-0.31
X7.4Y0.29
X7.4Y-0.31
X7.5Y0.29
X7.5Y-0.31
X7.6Y0.29
X7.6Y-0.31
X7.7Y0.29
X7.7Y-0.31
X7.8Y0.29
X7.8Y-0.31
X7.9Y0.29
X7.9Y-0.31
X8.0Y0.29
X8.0Y-0.31
X8.1Y0.29
X8.1Y-0.31
X8.25Y-0.3063
X8.4469Y-0.3063
X8.25Y0.29
X8.4469Y0.29
X8.35Y0.09
X8.35Y-0.1021
X7.1016Y0.15
X7.2Y0.15
T6
X9.35Y0.275
X9.45Y0.275
T7
X10.0266Y0.2756
X10.0266Y-0.2953
X10.125Y-0.2953
X10.2235Y0.2756
X10.2235Y-0.2953
T8
X5.42Y0.29
X5.42Y0.1128
X5.6759Y0.29
X5.6759Y0.1128
X5.8Y0.29
X5.8Y0.1128
X6.0559Y0.29
X6.0559Y0.1128
T9
X4.5375Y-1.4313
X4.7875Y-1.3313
X3.4125Y-2.1813
X3.6625Y-2.0813
X4.1625Y-2.1813
X4.4125Y-2.0813
X8.9438Y-2.1813
X9.1938Y-2.0813
X4.9125Y-2.1813
X5.1625Y-2.0813
X8.1Y-0.6813
X8.35Y-0.5813
X4.9125Y-2.9313
X5.1625Y-2.8313
X1.1625Y-2.1813
X1.4125Y-2.0813
X8.85Y-0.6813
X9.1Y-0.5813
X9.5063Y-1.4313
X9.7563Y-1.3313
X1.9125Y-2.1813
X2.1625Y-2.0813
X2.85Y-0.6813
X3.1Y-0.5813
X9.3188Y-2.1813
X9.5688Y-2.0813
X5.1Y-0.6813
X5.35Y-0.5813
X10.1313Y-1.0063
X10.2313Y-1.2563
X6.4125Y-2.9313
X6.6625Y-2.8313
X4.35Y-0.6813
X4.6Y-0.5813
X5.2875Y-1.4313
X5.5375Y-1.3313
X3.0375Y-1.4313
X3.2875Y-1.3313
X0.1313Y-2.1812
X0.3812Y-2.0812
X-0.0563Y-2.9313
X0.1938Y-2.8313
X2.6625Y-2.1813
X2.9125Y-2.0813
X7.9125Y-2.1813
X8.1625Y-2.0813
X9.975Y0.1
X10.225Y0.2
X6.4125Y-2.1813
X6.6625Y-2.0813
X6.0375Y-1.4313
X6.2875Y-1.3313
X0.7875Y-1.4313
X1.0375Y-1.3313
X6.6Y-0.6813
X6.85Y-0.5813
X3.4125Y-2.9313
X3.6625Y-2.8313
X7.5375Y-1.4313
X7.7875Y-1.3313
X2.1Y-0.6813
X2.35Y-0.5813
X-0.15Y-0.6813
X0.1Y-0.5813
X0.6Y-0.6813
X0.85Y-0.5813
X8.0063Y-2.9313
X8.2563Y-2.8313
X7.35Y-0.6813
X7.6Y-0.5813
X6.7875Y-1.4313
X7.0375Y-1.3313
X3.6Y-0.6813
X3.85Y-0.5813
X3.7875Y-1.4313
X4.0375Y-1.3313
X2.2875Y-1.4313
X2.5375Y-1.3313
X9.975Y-2.1813
X10.225Y-2.0813
X9.0375Y-1.4313
X9.2875Y-1.3313
X1.35Y-0.6813
X1.6Y-0.5813
X7.1625Y-2.1813
X7.4125Y-2.0813
X8.2875Y-1.4313
X8.5375Y-1.3313
X1.8187Y-2.9312
X2.0688Y-2.8312
X5.6625Y-2.1813
X5.9125Y-2.0813
X5.85Y-0.6813
X6.1Y-0.5813
X9.8813Y-2.9313
X10.1313Y-2.8313
X1.5375Y-1.4313
X1.7875Y-1.3313
X8.9438Y-2.9313
X9.1938Y-2.8313
X0.8812Y-2.9313
X1.1312Y-2.8313
X-0.0563Y-1.4312
X0.1938Y-1.3313
X9.7875Y-0.6813
X10.0375Y-0.5813
T11
X-0.2813Y-0.5
X10.4063Y-0.5
X10.4063Y-3.3125
X-0.2813Y-3.3125
X-0.2813Y0.2813
X-0.2813Y-0.2813
X9.625Y0.2813
X9.625Y-0.2813
T2
G00X8.8297Y0.2907
M15
G01X8.8297Y0.3222
M16
G05
G00X8.8297Y0.1439
M15
G01X8.8297Y0.203
M16
G05
G00X9.1703Y0.2907
M15
G01X9.1703Y0.3222
M16
G05
G00X9.1703Y0.1439
M15
G01X9.1703Y0.203
M16
G05
T10
G00X9.9046Y-0.0256
M15
G01X9.9046Y0.0256
M16
G05
G00X10.3455Y-0.0256
M15
G01X10.3455Y0.0256
M16
G05
T0
M30
