G04 #@! TF.GenerationSoftware,KiCad,Pcbnew,(5.1.4)-1*
G04 #@! TF.CreationDate,2023-05-14T00:18:44+08:00*
G04 #@! TF.ProjectId,chevron,63686576-726f-46e2-9e6b-696361645f70,rev?*
G04 #@! TF.SameCoordinates,Original*
G04 #@! TF.FileFunction,Legend,Top*
G04 #@! TF.FilePolarity,Positive*
%FSLAX46Y46*%
G04 Gerber Fmt 4.6, Leading zero omitted, Abs format (unit mm)*
G04 Created by KiCad (PCBNEW (5.1.4)-1) date 2023-05-14 00:18:44*
%MOMM*%
%LPD*%
G04 APERTURE LIST*
%ADD10C,0.100000*%
%ADD11C,0.375000*%
%ADD12C,0.150000*%
%ADD13C,0.120000*%
%ADD14C,0.752000*%
%ADD15O,1.002000X2.502000*%
%ADD16O,1.002000X1.802000*%
%ADD17C,1.852000*%
%ADD18C,4.089800*%
%ADD19O,1.702000X1.702000*%
%ADD20R,1.702000X1.702000*%
%ADD21O,1.602000X1.602000*%
%ADD22R,1.602000X1.602000*%
%ADD23C,1.302000*%
%ADD24R,1.302000X1.302000*%
%ADD25C,0.802000*%
%ADD26C,4.502000*%
%ADD27C,1.602000*%
%ADD28C,2.102000*%
%ADD29R,2.102000X2.102000*%
%ADD30O,1.992000X3.302000*%
%ADD31O,2.002000X3.302000*%
%ADD32O,1.502000X1.502000*%
%ADD33C,1.502000*%
%ADD34C,1.702000*%
%ADD35C,1.902000*%
%ADD36R,1.902000X1.902000*%
%ADD37C,3.150000*%
G04 APERTURE END LIST*
D10*
G36*
X135509000Y-7874000D02*
G01*
X124333000Y-7874000D01*
X135509000Y-1778000D01*
X135509000Y-7874000D01*
G37*
X135509000Y-7874000D02*
X124333000Y-7874000D01*
X135509000Y-1778000D01*
X135509000Y-7874000D01*
G36*
X118745000Y-7874000D02*
G01*
X96139000Y-7874000D01*
X107569000Y-1778000D01*
X118745000Y-7874000D01*
G37*
X118745000Y-7874000D02*
X96139000Y-7874000D01*
X107569000Y-1778000D01*
X118745000Y-7874000D01*
G36*
X90805000Y-7874000D02*
G01*
X68199000Y-7874000D01*
X79629000Y-1778000D01*
X90805000Y-7874000D01*
G37*
X90805000Y-7874000D02*
X68199000Y-7874000D01*
X79629000Y-1778000D01*
X90805000Y-7874000D01*
G36*
X62865000Y-7874000D02*
G01*
X40259000Y-7874000D01*
X51689000Y-1778000D01*
X62865000Y-7874000D01*
G37*
X62865000Y-7874000D02*
X40259000Y-7874000D01*
X51689000Y-1778000D01*
X62865000Y-7874000D01*
G36*
X121539000Y1778000D02*
G01*
X110363000Y7874000D01*
X132969000Y7874000D01*
X121539000Y1778000D01*
G37*
X121539000Y1778000D02*
X110363000Y7874000D01*
X132969000Y7874000D01*
X121539000Y1778000D01*
G36*
X93599000Y1778000D02*
G01*
X82423000Y7874000D01*
X105029000Y7874000D01*
X93599000Y1778000D01*
G37*
X93599000Y1778000D02*
X82423000Y7874000D01*
X105029000Y7874000D01*
X93599000Y1778000D01*
G36*
X65659000Y1778000D02*
G01*
X54483000Y7874000D01*
X77089000Y7874000D01*
X65659000Y1778000D01*
G37*
X65659000Y1778000D02*
X54483000Y7874000D01*
X77089000Y7874000D01*
X65659000Y1778000D01*
G36*
X37719000Y1778000D02*
G01*
X26543000Y7874000D01*
X49149000Y7874000D01*
X37719000Y1778000D01*
G37*
X37719000Y1778000D02*
X26543000Y7874000D01*
X49149000Y7874000D01*
X37719000Y1778000D01*
G36*
X7239000Y-7874000D02*
G01*
X-3937000Y-7874000D01*
X-3937000Y-1778000D01*
X7239000Y-7874000D01*
G37*
X7239000Y-7874000D02*
X-3937000Y-7874000D01*
X-3937000Y-1778000D01*
X7239000Y-7874000D01*
G36*
X34925000Y-7874000D02*
G01*
X12319000Y-7874000D01*
X23749000Y-1778000D01*
X34925000Y-7874000D01*
G37*
X34925000Y-7874000D02*
X12319000Y-7874000D01*
X23749000Y-1778000D01*
X34925000Y-7874000D01*
G36*
X10033000Y1778000D02*
G01*
X-1143000Y7874000D01*
X21463000Y7874000D01*
X10033000Y1778000D01*
G37*
X10033000Y1778000D02*
X-1143000Y7874000D01*
X21463000Y7874000D01*
X10033000Y1778000D01*
D11*
X138537428Y-678571D02*
X138037428Y35714D01*
X137680285Y-678571D02*
X137680285Y821428D01*
X138251714Y821428D01*
X138394571Y750000D01*
X138466000Y678571D01*
X138537428Y535714D01*
X138537428Y321428D01*
X138466000Y178571D01*
X138394571Y107142D01*
X138251714Y35714D01*
X137680285Y35714D01*
X139180285Y107142D02*
X139680285Y107142D01*
X139894571Y-678571D02*
X139180285Y-678571D01*
X139180285Y821428D01*
X139894571Y821428D01*
X140466000Y-607142D02*
X140680285Y-678571D01*
X141037428Y-678571D01*
X141180285Y-607142D01*
X141251714Y-535714D01*
X141323142Y-392857D01*
X141323142Y-250000D01*
X141251714Y-107142D01*
X141180285Y-35714D01*
X141037428Y35714D01*
X140751714Y107142D01*
X140608857Y178571D01*
X140537428Y250000D01*
X140466000Y392857D01*
X140466000Y535714D01*
X140537428Y678571D01*
X140608857Y750000D01*
X140751714Y821428D01*
X141108857Y821428D01*
X141323142Y750000D01*
X141966000Y107142D02*
X142466000Y107142D01*
X142680285Y-678571D02*
X141966000Y-678571D01*
X141966000Y821428D01*
X142680285Y821428D01*
X143108857Y821428D02*
X143966000Y821428D01*
X143537428Y-678571D02*
X143537428Y821428D01*
X148332285Y107142D02*
X148546571Y35714D01*
X148618000Y-35714D01*
X148689428Y-178571D01*
X148689428Y-392857D01*
X148618000Y-535714D01*
X148546571Y-607142D01*
X148403714Y-678571D01*
X147832285Y-678571D01*
X147832285Y821428D01*
X148332285Y821428D01*
X148475142Y750000D01*
X148546571Y678571D01*
X148618000Y535714D01*
X148618000Y392857D01*
X148546571Y250000D01*
X148475142Y178571D01*
X148332285Y107142D01*
X147832285Y107142D01*
X149618000Y821428D02*
X149903714Y821428D01*
X150046571Y750000D01*
X150189428Y607142D01*
X150260857Y321428D01*
X150260857Y-178571D01*
X150189428Y-464285D01*
X150046571Y-607142D01*
X149903714Y-678571D01*
X149618000Y-678571D01*
X149475142Y-607142D01*
X149332285Y-464285D01*
X149260857Y-178571D01*
X149260857Y321428D01*
X149332285Y607142D01*
X149475142Y750000D01*
X149618000Y821428D01*
X151189428Y821428D02*
X151475142Y821428D01*
X151618000Y750000D01*
X151760857Y607142D01*
X151832285Y321428D01*
X151832285Y-178571D01*
X151760857Y-464285D01*
X151618000Y-607142D01*
X151475142Y-678571D01*
X151189428Y-678571D01*
X151046571Y-607142D01*
X150903714Y-464285D01*
X150832285Y-178571D01*
X150832285Y321428D01*
X150903714Y607142D01*
X151046571Y750000D01*
X151189428Y821428D01*
X152260857Y821428D02*
X153118000Y821428D01*
X152689428Y-678571D02*
X152689428Y821428D01*
X236283571Y-4552142D02*
X237426428Y-4552142D01*
X236855000Y-5123571D02*
X236855000Y-3980714D01*
X236283571Y4337857D02*
X237426428Y4337857D01*
X236855000Y3766428D02*
X236855000Y4909285D01*
D12*
X228600000Y9525000D02*
X228600000Y8255000D01*
X233075000Y12035000D02*
X233080000Y11275000D01*
X233075000Y12035000D02*
X224125000Y12035000D01*
X224120000Y11275000D02*
X224125000Y12035000D01*
X233075000Y2865000D02*
X224125000Y2865000D01*
X233225000Y9525000D02*
X223975000Y9525000D01*
D13*
X207070000Y-1254000D02*
G75*
G02X207070000Y746000I0J1000000D01*
G01*
X207070000Y746000D02*
X207070000Y6206000D01*
X207070000Y6206000D02*
X156150000Y6206000D01*
X156150000Y6206000D02*
X156150000Y-6714000D01*
X156150000Y-6714000D02*
X207070000Y-6714000D01*
X207070000Y-6714000D02*
X207070000Y-1254000D01*
X56800000Y2708000D02*
X54960000Y2708000D01*
X56800000Y2468000D02*
X54960000Y2468000D01*
X56800000Y2588000D02*
X54960000Y2588000D01*
X55880000Y-1296000D02*
X55880000Y-116000D01*
X55880000Y4344000D02*
X55880000Y3164000D01*
X56800000Y-116000D02*
X56800000Y3164000D01*
X54960000Y-116000D02*
X56800000Y-116000D01*
X54960000Y3164000D02*
X54960000Y-116000D01*
X56800000Y3164000D02*
X54960000Y3164000D01*
X67976000Y-1864000D02*
X66136000Y-1864000D01*
X67976000Y-2104000D02*
X66136000Y-2104000D01*
X67976000Y-1984000D02*
X66136000Y-1984000D01*
X67056000Y-5868000D02*
X67056000Y-4688000D01*
X67056000Y-228000D02*
X67056000Y-1408000D01*
X67976000Y-4688000D02*
X67976000Y-1408000D01*
X66136000Y-4688000D02*
X67976000Y-4688000D01*
X66136000Y-1408000D02*
X66136000Y-4688000D01*
X67976000Y-1408000D02*
X66136000Y-1408000D01*
X76358000Y2708000D02*
X74518000Y2708000D01*
X76358000Y2468000D02*
X74518000Y2468000D01*
X76358000Y2588000D02*
X74518000Y2588000D01*
X75438000Y-1296000D02*
X75438000Y-116000D01*
X75438000Y4344000D02*
X75438000Y3164000D01*
X76358000Y-116000D02*
X76358000Y3164000D01*
X74518000Y-116000D02*
X76358000Y-116000D01*
X74518000Y3164000D02*
X74518000Y-116000D01*
X76358000Y3164000D02*
X74518000Y3164000D01*
X81946000Y4232000D02*
X80106000Y4232000D01*
X81946000Y3992000D02*
X80106000Y3992000D01*
X81946000Y4112000D02*
X80106000Y4112000D01*
X81026000Y228000D02*
X81026000Y1408000D01*
X81026000Y5868000D02*
X81026000Y4688000D01*
X81946000Y1408000D02*
X81946000Y4688000D01*
X80106000Y1408000D02*
X81946000Y1408000D01*
X80106000Y4688000D02*
X80106000Y1408000D01*
X81946000Y4688000D02*
X80106000Y4688000D01*
X93122000Y-1864000D02*
X91282000Y-1864000D01*
X93122000Y-2104000D02*
X91282000Y-2104000D01*
X93122000Y-1984000D02*
X91282000Y-1984000D01*
X92202000Y-5868000D02*
X92202000Y-4688000D01*
X92202000Y-228000D02*
X92202000Y-1408000D01*
X93122000Y-4688000D02*
X93122000Y-1408000D01*
X91282000Y-4688000D02*
X93122000Y-4688000D01*
X91282000Y-1408000D02*
X91282000Y-4688000D01*
X93122000Y-1408000D02*
X91282000Y-1408000D01*
X9556000Y-1864000D02*
X7716000Y-1864000D01*
X9556000Y-2104000D02*
X7716000Y-2104000D01*
X9556000Y-1984000D02*
X7716000Y-1984000D01*
X8636000Y-5868000D02*
X8636000Y-4688000D01*
X8636000Y-228000D02*
X8636000Y-1408000D01*
X9556000Y-4688000D02*
X9556000Y-1408000D01*
X7716000Y-4688000D02*
X9556000Y-4688000D01*
X7716000Y-1408000D02*
X7716000Y-4688000D01*
X9556000Y-1408000D02*
X7716000Y-1408000D01*
X31654000Y1184000D02*
X29814000Y1184000D01*
X31654000Y944000D02*
X29814000Y944000D01*
X31654000Y1064000D02*
X29814000Y1064000D01*
X30734000Y-2820000D02*
X30734000Y-1640000D01*
X30734000Y2820000D02*
X30734000Y1640000D01*
X31654000Y-1640000D02*
X31654000Y1640000D01*
X29814000Y-1640000D02*
X31654000Y-1640000D01*
X29814000Y1640000D02*
X29814000Y-1640000D01*
X31654000Y1640000D02*
X29814000Y1640000D01*
X37242000Y-1864000D02*
X35402000Y-1864000D01*
X37242000Y-2104000D02*
X35402000Y-2104000D01*
X37242000Y-1984000D02*
X35402000Y-1984000D01*
X36322000Y-5868000D02*
X36322000Y-4688000D01*
X36322000Y-228000D02*
X36322000Y-1408000D01*
X37242000Y-4688000D02*
X37242000Y-1408000D01*
X35402000Y-4688000D02*
X37242000Y-4688000D01*
X35402000Y-1408000D02*
X35402000Y-4688000D01*
X37242000Y-1408000D02*
X35402000Y-1408000D01*
X6762000Y-340000D02*
X4922000Y-340000D01*
X6762000Y-580000D02*
X4922000Y-580000D01*
X6762000Y-460000D02*
X4922000Y-460000D01*
X5842000Y-4344000D02*
X5842000Y-3164000D01*
X5842000Y1296000D02*
X5842000Y116000D01*
X6762000Y-3164000D02*
X6762000Y116000D01*
X4922000Y-3164000D02*
X6762000Y-3164000D01*
X4922000Y116000D02*
X4922000Y-3164000D01*
X6762000Y116000D02*
X4922000Y116000D01*
X54006000Y4232000D02*
X52166000Y4232000D01*
X54006000Y3992000D02*
X52166000Y3992000D01*
X54006000Y4112000D02*
X52166000Y4112000D01*
X53086000Y228000D02*
X53086000Y1408000D01*
X53086000Y5868000D02*
X53086000Y4688000D01*
X54006000Y1408000D02*
X54006000Y4688000D01*
X52166000Y1408000D02*
X54006000Y1408000D01*
X52166000Y4688000D02*
X52166000Y1408000D01*
X54006000Y4688000D02*
X52166000Y4688000D01*
X65182000Y-1864000D02*
X63342000Y-1864000D01*
X65182000Y-2104000D02*
X63342000Y-2104000D01*
X65182000Y-1984000D02*
X63342000Y-1984000D01*
X64262000Y-5868000D02*
X64262000Y-4688000D01*
X64262000Y-228000D02*
X64262000Y-1408000D01*
X65182000Y-4688000D02*
X65182000Y-1408000D01*
X63342000Y-4688000D02*
X65182000Y-4688000D01*
X63342000Y-1408000D02*
X63342000Y-4688000D01*
X65182000Y-1408000D02*
X63342000Y-1408000D01*
X79152000Y4232000D02*
X77312000Y4232000D01*
X79152000Y3992000D02*
X77312000Y3992000D01*
X79152000Y4112000D02*
X77312000Y4112000D01*
X78232000Y228000D02*
X78232000Y1408000D01*
X78232000Y5868000D02*
X78232000Y4688000D01*
X79152000Y1408000D02*
X79152000Y4688000D01*
X77312000Y1408000D02*
X79152000Y1408000D01*
X77312000Y4688000D02*
X77312000Y1408000D01*
X79152000Y4688000D02*
X77312000Y4688000D01*
X101504000Y1184000D02*
X99664000Y1184000D01*
X101504000Y944000D02*
X99664000Y944000D01*
X101504000Y1064000D02*
X99664000Y1064000D01*
X100584000Y-2820000D02*
X100584000Y-1640000D01*
X100584000Y2820000D02*
X100584000Y1640000D01*
X101504000Y-1640000D02*
X101504000Y1640000D01*
X99664000Y-1640000D02*
X101504000Y-1640000D01*
X99664000Y1640000D02*
X99664000Y-1640000D01*
X101504000Y1640000D02*
X99664000Y1640000D01*
X109886000Y4232000D02*
X108046000Y4232000D01*
X109886000Y3992000D02*
X108046000Y3992000D01*
X109886000Y4112000D02*
X108046000Y4112000D01*
X108966000Y228000D02*
X108966000Y1408000D01*
X108966000Y5868000D02*
X108966000Y4688000D01*
X109886000Y1408000D02*
X109886000Y4688000D01*
X108046000Y1408000D02*
X109886000Y1408000D01*
X108046000Y4688000D02*
X108046000Y1408000D01*
X109886000Y4688000D02*
X108046000Y4688000D01*
X118268000Y-340000D02*
X116428000Y-340000D01*
X118268000Y-580000D02*
X116428000Y-580000D01*
X118268000Y-460000D02*
X116428000Y-460000D01*
X117348000Y-4344000D02*
X117348000Y-3164000D01*
X117348000Y1296000D02*
X117348000Y116000D01*
X118268000Y-3164000D02*
X118268000Y116000D01*
X116428000Y-3164000D02*
X118268000Y-3164000D01*
X116428000Y116000D02*
X116428000Y-3164000D01*
X118268000Y116000D02*
X116428000Y116000D01*
X126650000Y-340000D02*
X124810000Y-340000D01*
X126650000Y-580000D02*
X124810000Y-580000D01*
X126650000Y-460000D02*
X124810000Y-460000D01*
X125730000Y-4344000D02*
X125730000Y-3164000D01*
X125730000Y1296000D02*
X125730000Y116000D01*
X126650000Y-3164000D02*
X126650000Y116000D01*
X124810000Y-3164000D02*
X126650000Y-3164000D01*
X124810000Y116000D02*
X124810000Y-3164000D01*
X126650000Y116000D02*
X124810000Y116000D01*
X90328000Y-340000D02*
X88488000Y-340000D01*
X90328000Y-580000D02*
X88488000Y-580000D01*
X90328000Y-460000D02*
X88488000Y-460000D01*
X89408000Y-4344000D02*
X89408000Y-3164000D01*
X89408000Y1296000D02*
X89408000Y116000D01*
X90328000Y-3164000D02*
X90328000Y116000D01*
X88488000Y-3164000D02*
X90328000Y-3164000D01*
X88488000Y116000D02*
X88488000Y-3164000D01*
X90328000Y116000D02*
X88488000Y116000D01*
X12350000Y-1864000D02*
X10510000Y-1864000D01*
X12350000Y-2104000D02*
X10510000Y-2104000D01*
X12350000Y-1984000D02*
X10510000Y-1984000D01*
X11430000Y-5868000D02*
X11430000Y-4688000D01*
X11430000Y-228000D02*
X11430000Y-1408000D01*
X12350000Y-4688000D02*
X12350000Y-1408000D01*
X10510000Y-4688000D02*
X12350000Y-4688000D01*
X10510000Y-1408000D02*
X10510000Y-4688000D01*
X12350000Y-1408000D02*
X10510000Y-1408000D01*
X15144000Y-340000D02*
X13304000Y-340000D01*
X15144000Y-580000D02*
X13304000Y-580000D01*
X15144000Y-460000D02*
X13304000Y-460000D01*
X14224000Y-4344000D02*
X14224000Y-3164000D01*
X14224000Y1296000D02*
X14224000Y116000D01*
X15144000Y-3164000D02*
X15144000Y116000D01*
X13304000Y-3164000D02*
X15144000Y-3164000D01*
X13304000Y116000D02*
X13304000Y-3164000D01*
X15144000Y116000D02*
X13304000Y116000D01*
X28860000Y2708000D02*
X27020000Y2708000D01*
X28860000Y2468000D02*
X27020000Y2468000D01*
X28860000Y2588000D02*
X27020000Y2588000D01*
X27940000Y-1296000D02*
X27940000Y-116000D01*
X27940000Y4344000D02*
X27940000Y3164000D01*
X28860000Y-116000D02*
X28860000Y3164000D01*
X27020000Y-116000D02*
X28860000Y-116000D01*
X27020000Y3164000D02*
X27020000Y-116000D01*
X28860000Y3164000D02*
X27020000Y3164000D01*
X34448000Y-340000D02*
X32608000Y-340000D01*
X34448000Y-580000D02*
X32608000Y-580000D01*
X34448000Y-460000D02*
X32608000Y-460000D01*
X33528000Y-4344000D02*
X33528000Y-3164000D01*
X33528000Y1296000D02*
X33528000Y116000D01*
X34448000Y-3164000D02*
X34448000Y116000D01*
X32608000Y-3164000D02*
X34448000Y-3164000D01*
X32608000Y116000D02*
X32608000Y-3164000D01*
X34448000Y116000D02*
X32608000Y116000D01*
X3968000Y1184000D02*
X2128000Y1184000D01*
X3968000Y944000D02*
X2128000Y944000D01*
X3968000Y1064000D02*
X2128000Y1064000D01*
X3048000Y-2820000D02*
X3048000Y-1640000D01*
X3048000Y2820000D02*
X3048000Y1640000D01*
X3968000Y-1640000D02*
X3968000Y1640000D01*
X2128000Y-1640000D02*
X3968000Y-1640000D01*
X2128000Y1640000D02*
X2128000Y-1640000D01*
X3968000Y1640000D02*
X2128000Y1640000D01*
X135032000Y4232000D02*
X133192000Y4232000D01*
X135032000Y3992000D02*
X133192000Y3992000D01*
X135032000Y4112000D02*
X133192000Y4112000D01*
X134112000Y228000D02*
X134112000Y1408000D01*
X134112000Y5868000D02*
X134112000Y4688000D01*
X135032000Y1408000D02*
X135032000Y4688000D01*
X133192000Y1408000D02*
X135032000Y1408000D01*
X133192000Y4688000D02*
X133192000Y1408000D01*
X135032000Y4688000D02*
X133192000Y4688000D01*
X62388000Y-340000D02*
X60548000Y-340000D01*
X62388000Y-580000D02*
X60548000Y-580000D01*
X62388000Y-460000D02*
X60548000Y-460000D01*
X61468000Y-4344000D02*
X61468000Y-3164000D01*
X61468000Y1296000D02*
X61468000Y116000D01*
X62388000Y-3164000D02*
X62388000Y116000D01*
X60548000Y-3164000D02*
X62388000Y-3164000D01*
X60548000Y116000D02*
X60548000Y-3164000D01*
X62388000Y116000D02*
X60548000Y116000D01*
X73564000Y1057000D02*
X71724000Y1057000D01*
X73564000Y817000D02*
X71724000Y817000D01*
X73564000Y937000D02*
X71724000Y937000D01*
X72644000Y-2947000D02*
X72644000Y-1767000D01*
X72644000Y2693000D02*
X72644000Y1513000D01*
X73564000Y-1767000D02*
X73564000Y1513000D01*
X71724000Y-1767000D02*
X73564000Y-1767000D01*
X71724000Y1513000D02*
X71724000Y-1767000D01*
X73564000Y1513000D02*
X71724000Y1513000D01*
X98710000Y-340000D02*
X96870000Y-340000D01*
X98710000Y-580000D02*
X96870000Y-580000D01*
X98710000Y-460000D02*
X96870000Y-460000D01*
X97790000Y-4344000D02*
X97790000Y-3164000D01*
X97790000Y1296000D02*
X97790000Y116000D01*
X98710000Y-3164000D02*
X98710000Y116000D01*
X96870000Y-3164000D02*
X98710000Y-3164000D01*
X96870000Y116000D02*
X96870000Y-3164000D01*
X98710000Y116000D02*
X96870000Y116000D01*
X107092000Y4232000D02*
X105252000Y4232000D01*
X107092000Y3992000D02*
X105252000Y3992000D01*
X107092000Y4112000D02*
X105252000Y4112000D01*
X106172000Y228000D02*
X106172000Y1408000D01*
X106172000Y5868000D02*
X106172000Y4688000D01*
X107092000Y1408000D02*
X107092000Y4688000D01*
X105252000Y1408000D02*
X107092000Y1408000D01*
X105252000Y4688000D02*
X105252000Y1408000D01*
X107092000Y4688000D02*
X105252000Y4688000D01*
X115474000Y1184000D02*
X113634000Y1184000D01*
X115474000Y944000D02*
X113634000Y944000D01*
X115474000Y1064000D02*
X113634000Y1064000D01*
X114554000Y-2820000D02*
X114554000Y-1640000D01*
X114554000Y2820000D02*
X114554000Y1640000D01*
X115474000Y-1640000D02*
X115474000Y1640000D01*
X113634000Y-1640000D02*
X115474000Y-1640000D01*
X113634000Y1640000D02*
X113634000Y-1640000D01*
X115474000Y1640000D02*
X113634000Y1640000D01*
X123856000Y-1864000D02*
X122016000Y-1864000D01*
X123856000Y-2104000D02*
X122016000Y-2104000D01*
X123856000Y-1984000D02*
X122016000Y-1984000D01*
X122936000Y-5868000D02*
X122936000Y-4688000D01*
X122936000Y-228000D02*
X122936000Y-1408000D01*
X123856000Y-4688000D02*
X123856000Y-1408000D01*
X122016000Y-4688000D02*
X123856000Y-4688000D01*
X122016000Y-1408000D02*
X122016000Y-4688000D01*
X123856000Y-1408000D02*
X122016000Y-1408000D01*
X132238000Y2708000D02*
X130398000Y2708000D01*
X132238000Y2468000D02*
X130398000Y2468000D01*
X132238000Y2588000D02*
X130398000Y2588000D01*
X131318000Y-1296000D02*
X131318000Y-116000D01*
X131318000Y4344000D02*
X131318000Y3164000D01*
X132238000Y-116000D02*
X132238000Y3164000D01*
X130398000Y-116000D02*
X132238000Y-116000D01*
X130398000Y3164000D02*
X130398000Y-116000D01*
X132238000Y3164000D02*
X130398000Y3164000D01*
X87534000Y1184000D02*
X85694000Y1184000D01*
X87534000Y944000D02*
X85694000Y944000D01*
X87534000Y1064000D02*
X85694000Y1064000D01*
X86614000Y-2820000D02*
X86614000Y-1640000D01*
X86614000Y2820000D02*
X86614000Y1640000D01*
X87534000Y-1640000D02*
X87534000Y1640000D01*
X85694000Y-1640000D02*
X87534000Y-1640000D01*
X85694000Y1640000D02*
X85694000Y-1640000D01*
X87534000Y1640000D02*
X85694000Y1640000D01*
X17938000Y1184000D02*
X16098000Y1184000D01*
X17938000Y944000D02*
X16098000Y944000D01*
X17938000Y1064000D02*
X16098000Y1064000D01*
X17018000Y-2820000D02*
X17018000Y-1640000D01*
X17018000Y2820000D02*
X17018000Y1640000D01*
X17938000Y-1640000D02*
X17938000Y1640000D01*
X16098000Y-1640000D02*
X17938000Y-1640000D01*
X16098000Y1640000D02*
X16098000Y-1640000D01*
X17938000Y1640000D02*
X16098000Y1640000D01*
X23272000Y4232000D02*
X21432000Y4232000D01*
X23272000Y3992000D02*
X21432000Y3992000D01*
X23272000Y4112000D02*
X21432000Y4112000D01*
X22352000Y228000D02*
X22352000Y1408000D01*
X22352000Y5868000D02*
X22352000Y4688000D01*
X23272000Y1408000D02*
X23272000Y4688000D01*
X21432000Y1408000D02*
X23272000Y1408000D01*
X21432000Y4688000D02*
X21432000Y1408000D01*
X23272000Y4688000D02*
X21432000Y4688000D01*
X48418000Y2708000D02*
X46578000Y2708000D01*
X48418000Y2468000D02*
X46578000Y2468000D01*
X48418000Y2588000D02*
X46578000Y2588000D01*
X47498000Y-1296000D02*
X47498000Y-116000D01*
X47498000Y4344000D02*
X47498000Y3164000D01*
X48418000Y-116000D02*
X48418000Y3164000D01*
X46578000Y-116000D02*
X48418000Y-116000D01*
X46578000Y3164000D02*
X46578000Y-116000D01*
X48418000Y3164000D02*
X46578000Y3164000D01*
X42830000Y-340000D02*
X40990000Y-340000D01*
X42830000Y-580000D02*
X40990000Y-580000D01*
X42830000Y-460000D02*
X40990000Y-460000D01*
X41910000Y-4344000D02*
X41910000Y-3164000D01*
X41910000Y1296000D02*
X41910000Y116000D01*
X42830000Y-3164000D02*
X42830000Y116000D01*
X40990000Y-3164000D02*
X42830000Y-3164000D01*
X40990000Y116000D02*
X40990000Y-3164000D01*
X42830000Y116000D02*
X40990000Y116000D01*
X1174000Y2708000D02*
X-666000Y2708000D01*
X1174000Y2468000D02*
X-666000Y2468000D01*
X1174000Y2588000D02*
X-666000Y2588000D01*
X254000Y-1296000D02*
X254000Y-116000D01*
X254000Y4344000D02*
X254000Y3164000D01*
X1174000Y-116000D02*
X1174000Y3164000D01*
X-666000Y-116000D02*
X1174000Y-116000D01*
X-666000Y3164000D02*
X-666000Y-116000D01*
X1174000Y3164000D02*
X-666000Y3164000D01*
X51212000Y4232000D02*
X49372000Y4232000D01*
X51212000Y3992000D02*
X49372000Y3992000D01*
X51212000Y4112000D02*
X49372000Y4112000D01*
X50292000Y228000D02*
X50292000Y1408000D01*
X50292000Y5868000D02*
X50292000Y4688000D01*
X51212000Y1408000D02*
X51212000Y4688000D01*
X49372000Y1408000D02*
X51212000Y1408000D01*
X49372000Y4688000D02*
X49372000Y1408000D01*
X51212000Y4688000D02*
X49372000Y4688000D01*
X59594000Y1184000D02*
X57754000Y1184000D01*
X59594000Y944000D02*
X57754000Y944000D01*
X59594000Y1064000D02*
X57754000Y1064000D01*
X58674000Y-2820000D02*
X58674000Y-1640000D01*
X58674000Y2820000D02*
X58674000Y1640000D01*
X59594000Y-1640000D02*
X59594000Y1640000D01*
X57754000Y-1640000D02*
X59594000Y-1640000D01*
X57754000Y1640000D02*
X57754000Y-1640000D01*
X59594000Y1640000D02*
X57754000Y1640000D01*
X70770000Y-340000D02*
X68930000Y-340000D01*
X70770000Y-580000D02*
X68930000Y-580000D01*
X70770000Y-460000D02*
X68930000Y-460000D01*
X69850000Y-4344000D02*
X69850000Y-3164000D01*
X69850000Y1296000D02*
X69850000Y116000D01*
X70770000Y-3164000D02*
X70770000Y116000D01*
X68930000Y-3164000D02*
X70770000Y-3164000D01*
X68930000Y116000D02*
X68930000Y-3164000D01*
X70770000Y116000D02*
X68930000Y116000D01*
X95916000Y-1864000D02*
X94076000Y-1864000D01*
X95916000Y-2104000D02*
X94076000Y-2104000D01*
X95916000Y-1984000D02*
X94076000Y-1984000D01*
X94996000Y-5868000D02*
X94996000Y-4688000D01*
X94996000Y-228000D02*
X94996000Y-1408000D01*
X95916000Y-4688000D02*
X95916000Y-1408000D01*
X94076000Y-4688000D02*
X95916000Y-4688000D01*
X94076000Y-1408000D02*
X94076000Y-4688000D01*
X95916000Y-1408000D02*
X94076000Y-1408000D01*
X104298000Y2708000D02*
X102458000Y2708000D01*
X104298000Y2468000D02*
X102458000Y2468000D01*
X104298000Y2588000D02*
X102458000Y2588000D01*
X103378000Y-1296000D02*
X103378000Y-116000D01*
X103378000Y4344000D02*
X103378000Y3164000D01*
X104298000Y-116000D02*
X104298000Y3164000D01*
X102458000Y-116000D02*
X104298000Y-116000D01*
X102458000Y3164000D02*
X102458000Y-116000D01*
X104298000Y3164000D02*
X102458000Y3164000D01*
X112680000Y2708000D02*
X110840000Y2708000D01*
X112680000Y2468000D02*
X110840000Y2468000D01*
X112680000Y2588000D02*
X110840000Y2588000D01*
X111760000Y-1296000D02*
X111760000Y-116000D01*
X111760000Y4344000D02*
X111760000Y3164000D01*
X112680000Y-116000D02*
X112680000Y3164000D01*
X110840000Y-116000D02*
X112680000Y-116000D01*
X110840000Y3164000D02*
X110840000Y-116000D01*
X112680000Y3164000D02*
X110840000Y3164000D01*
X121062000Y-1864000D02*
X119222000Y-1864000D01*
X121062000Y-2104000D02*
X119222000Y-2104000D01*
X121062000Y-1984000D02*
X119222000Y-1984000D01*
X120142000Y-5868000D02*
X120142000Y-4688000D01*
X120142000Y-228000D02*
X120142000Y-1408000D01*
X121062000Y-4688000D02*
X121062000Y-1408000D01*
X119222000Y-4688000D02*
X121062000Y-4688000D01*
X119222000Y-1408000D02*
X119222000Y-4688000D01*
X121062000Y-1408000D02*
X119222000Y-1408000D01*
X129444000Y1184000D02*
X127604000Y1184000D01*
X129444000Y944000D02*
X127604000Y944000D01*
X129444000Y1064000D02*
X127604000Y1064000D01*
X128524000Y-2820000D02*
X128524000Y-1640000D01*
X128524000Y2820000D02*
X128524000Y1640000D01*
X129444000Y-1640000D02*
X129444000Y1640000D01*
X127604000Y-1640000D02*
X129444000Y-1640000D01*
X127604000Y1640000D02*
X127604000Y-1640000D01*
X129444000Y1640000D02*
X127604000Y1640000D01*
X84740000Y2708000D02*
X82900000Y2708000D01*
X84740000Y2468000D02*
X82900000Y2468000D01*
X84740000Y2588000D02*
X82900000Y2588000D01*
X83820000Y-1296000D02*
X83820000Y-116000D01*
X83820000Y4344000D02*
X83820000Y3164000D01*
X84740000Y-116000D02*
X84740000Y3164000D01*
X82900000Y-116000D02*
X84740000Y-116000D01*
X82900000Y3164000D02*
X82900000Y-116000D01*
X84740000Y3164000D02*
X82900000Y3164000D01*
X20478000Y2708000D02*
X18638000Y2708000D01*
X20478000Y2468000D02*
X18638000Y2468000D01*
X20478000Y2588000D02*
X18638000Y2588000D01*
X19558000Y-1296000D02*
X19558000Y-116000D01*
X19558000Y4344000D02*
X19558000Y3164000D01*
X20478000Y-116000D02*
X20478000Y3164000D01*
X18638000Y-116000D02*
X20478000Y-116000D01*
X18638000Y3164000D02*
X18638000Y-116000D01*
X20478000Y3164000D02*
X18638000Y3164000D01*
X26066000Y4688000D02*
X24226000Y4688000D01*
X24226000Y4688000D02*
X24226000Y1408000D01*
X24226000Y1408000D02*
X26066000Y1408000D01*
X26066000Y1408000D02*
X26066000Y4688000D01*
X25146000Y5868000D02*
X25146000Y4688000D01*
X25146000Y228000D02*
X25146000Y1408000D01*
X26066000Y4112000D02*
X24226000Y4112000D01*
X26066000Y3992000D02*
X24226000Y3992000D01*
X26066000Y4232000D02*
X24226000Y4232000D01*
X45624000Y1640000D02*
X43784000Y1640000D01*
X43784000Y1640000D02*
X43784000Y-1640000D01*
X43784000Y-1640000D02*
X45624000Y-1640000D01*
X45624000Y-1640000D02*
X45624000Y1640000D01*
X44704000Y2820000D02*
X44704000Y1640000D01*
X44704000Y-2820000D02*
X44704000Y-1640000D01*
X45624000Y1064000D02*
X43784000Y1064000D01*
X45624000Y944000D02*
X43784000Y944000D01*
X45624000Y1184000D02*
X43784000Y1184000D01*
X40036000Y-1864000D02*
X38196000Y-1864000D01*
X40036000Y-2104000D02*
X38196000Y-2104000D01*
X40036000Y-1984000D02*
X38196000Y-1984000D01*
X39116000Y-5868000D02*
X39116000Y-4688000D01*
X39116000Y-228000D02*
X39116000Y-1408000D01*
X40036000Y-4688000D02*
X40036000Y-1408000D01*
X38196000Y-4688000D02*
X40036000Y-4688000D01*
X38196000Y-1408000D02*
X38196000Y-4688000D01*
X40036000Y-1408000D02*
X38196000Y-1408000D01*
X-1620000Y4232000D02*
X-3460000Y4232000D01*
X-1620000Y3992000D02*
X-3460000Y3992000D01*
X-1620000Y4112000D02*
X-3460000Y4112000D01*
X-2540000Y228000D02*
X-2540000Y1408000D01*
X-2540000Y5868000D02*
X-2540000Y4688000D01*
X-1620000Y1408000D02*
X-1620000Y4688000D01*
X-3460000Y1408000D02*
X-1620000Y1408000D01*
X-3460000Y4688000D02*
X-3460000Y1408000D01*
X-1620000Y4688000D02*
X-3460000Y4688000D01*
X241122000Y-7112000D02*
G75*
G03X241122000Y-7112000I-2120000J0D01*
G01*
X239002000Y-6272000D02*
X239002000Y-5032000D01*
X239002000Y-9192000D02*
X239002000Y-7952000D01*
X238962000Y-6272000D02*
X238962000Y-5032000D01*
X238962000Y-9192000D02*
X238962000Y-7952000D01*
X238922000Y-6272000D02*
X238922000Y-5033000D01*
X238922000Y-9191000D02*
X238922000Y-7952000D01*
X238882000Y-9189000D02*
X238882000Y-7952000D01*
X238882000Y-6272000D02*
X238882000Y-5035000D01*
X238842000Y-9186000D02*
X238842000Y-7952000D01*
X238842000Y-6272000D02*
X238842000Y-5038000D01*
X238802000Y-9183000D02*
X238802000Y-7952000D01*
X238802000Y-6272000D02*
X238802000Y-5041000D01*
X238762000Y-9179000D02*
X238762000Y-7952000D01*
X238762000Y-6272000D02*
X238762000Y-5045000D01*
X238722000Y-9174000D02*
X238722000Y-7952000D01*
X238722000Y-6272000D02*
X238722000Y-5050000D01*
X238682000Y-9168000D02*
X238682000Y-7952000D01*
X238682000Y-6272000D02*
X238682000Y-5056000D01*
X238642000Y-9162000D02*
X238642000Y-7952000D01*
X238642000Y-6272000D02*
X238642000Y-5062000D01*
X238602000Y-9154000D02*
X238602000Y-7952000D01*
X238602000Y-6272000D02*
X238602000Y-5070000D01*
X238562000Y-9146000D02*
X238562000Y-7952000D01*
X238562000Y-6272000D02*
X238562000Y-5078000D01*
X238522000Y-9137000D02*
X238522000Y-7952000D01*
X238522000Y-6272000D02*
X238522000Y-5087000D01*
X238482000Y-9128000D02*
X238482000Y-7952000D01*
X238482000Y-6272000D02*
X238482000Y-5096000D01*
X238442000Y-9117000D02*
X238442000Y-7952000D01*
X238442000Y-6272000D02*
X238442000Y-5107000D01*
X238402000Y-9106000D02*
X238402000Y-7952000D01*
X238402000Y-6272000D02*
X238402000Y-5118000D01*
X238362000Y-9094000D02*
X238362000Y-7952000D01*
X238362000Y-6272000D02*
X238362000Y-5130000D01*
X238322000Y-9080000D02*
X238322000Y-7952000D01*
X238322000Y-6272000D02*
X238322000Y-5144000D01*
X238281000Y-9066000D02*
X238281000Y-7952000D01*
X238281000Y-6272000D02*
X238281000Y-5158000D01*
X238241000Y-9052000D02*
X238241000Y-7952000D01*
X238241000Y-6272000D02*
X238241000Y-5172000D01*
X238201000Y-9036000D02*
X238201000Y-7952000D01*
X238201000Y-6272000D02*
X238201000Y-5188000D01*
X238161000Y-9019000D02*
X238161000Y-7952000D01*
X238161000Y-6272000D02*
X238161000Y-5205000D01*
X238121000Y-9001000D02*
X238121000Y-7952000D01*
X238121000Y-6272000D02*
X238121000Y-5223000D01*
X238081000Y-8982000D02*
X238081000Y-7952000D01*
X238081000Y-6272000D02*
X238081000Y-5242000D01*
X238041000Y-8963000D02*
X238041000Y-7952000D01*
X238041000Y-6272000D02*
X238041000Y-5261000D01*
X238001000Y-8942000D02*
X238001000Y-7952000D01*
X238001000Y-6272000D02*
X238001000Y-5282000D01*
X237961000Y-8920000D02*
X237961000Y-7952000D01*
X237961000Y-6272000D02*
X237961000Y-5304000D01*
X237921000Y-8897000D02*
X237921000Y-7952000D01*
X237921000Y-6272000D02*
X237921000Y-5327000D01*
X237881000Y-8872000D02*
X237881000Y-7952000D01*
X237881000Y-6272000D02*
X237881000Y-5352000D01*
X237841000Y-8847000D02*
X237841000Y-7952000D01*
X237841000Y-6272000D02*
X237841000Y-5377000D01*
X237801000Y-8820000D02*
X237801000Y-7952000D01*
X237801000Y-6272000D02*
X237801000Y-5404000D01*
X237761000Y-8792000D02*
X237761000Y-7952000D01*
X237761000Y-6272000D02*
X237761000Y-5432000D01*
X237721000Y-8762000D02*
X237721000Y-7952000D01*
X237721000Y-6272000D02*
X237721000Y-5462000D01*
X237681000Y-8731000D02*
X237681000Y-7952000D01*
X237681000Y-6272000D02*
X237681000Y-5493000D01*
X237641000Y-8699000D02*
X237641000Y-7952000D01*
X237641000Y-6272000D02*
X237641000Y-5525000D01*
X237601000Y-8664000D02*
X237601000Y-7952000D01*
X237601000Y-6272000D02*
X237601000Y-5560000D01*
X237561000Y-8628000D02*
X237561000Y-7952000D01*
X237561000Y-6272000D02*
X237561000Y-5596000D01*
X237521000Y-8590000D02*
X237521000Y-7952000D01*
X237521000Y-6272000D02*
X237521000Y-5634000D01*
X237481000Y-8550000D02*
X237481000Y-7952000D01*
X237481000Y-6272000D02*
X237481000Y-5674000D01*
X237441000Y-8508000D02*
X237441000Y-7952000D01*
X237441000Y-6272000D02*
X237441000Y-5716000D01*
X237401000Y-8463000D02*
X237401000Y-5761000D01*
X237361000Y-8416000D02*
X237361000Y-5808000D01*
X237321000Y-8366000D02*
X237321000Y-5858000D01*
X237281000Y-8312000D02*
X237281000Y-5912000D01*
X237241000Y-8254000D02*
X237241000Y-5970000D01*
X237201000Y-8192000D02*
X237201000Y-6032000D01*
X237161000Y-8125000D02*
X237161000Y-6099000D01*
X237121000Y-8052000D02*
X237121000Y-6172000D01*
X237081000Y-7971000D02*
X237081000Y-6253000D01*
X237041000Y-7880000D02*
X237041000Y-6344000D01*
X237001000Y-7776000D02*
X237001000Y-6448000D01*
X236961000Y-7649000D02*
X236961000Y-6575000D01*
X236921000Y-7482000D02*
X236921000Y-6742000D01*
X209565000Y-3354000D02*
G75*
G03X214615000Y-3354000I2525000J0D01*
G01*
X209565000Y3046000D02*
G75*
G02X214615000Y3046000I2525000J0D01*
G01*
X214615000Y3046000D02*
X214615000Y-3354000D01*
X209565000Y3046000D02*
X209565000Y-3354000D01*
X257175648Y-500000D02*
X257175648Y500000D01*
X256675648Y0D02*
X257675648Y0D01*
X260675648Y6100000D02*
X263075648Y6100000D01*
X255875648Y6100000D02*
X258475648Y6100000D01*
X251275648Y6100000D02*
X253675648Y6100000D01*
X256875648Y-9100000D02*
X257175648Y-8800000D01*
X257475648Y-9100000D02*
X256875648Y-9100000D01*
X257175648Y-8800000D02*
X257475648Y-9100000D01*
X251275648Y-6100000D02*
X263075648Y-6100000D01*
X251275648Y-2000000D02*
X251275648Y-6100000D01*
X263075648Y-2000000D02*
X263075648Y-6100000D01*
X263075648Y6100000D02*
X263075648Y2000000D01*
X251275648Y2000000D02*
X251275648Y6100000D01*
X260175648Y0D02*
G75*
G03X260175648Y0I-3000000J0D01*
G01*
X148320000Y1866000D02*
X152820000Y1866000D01*
X147070000Y5866000D02*
X147070000Y4366000D01*
X152820000Y8366000D02*
X148320000Y8366000D01*
X154070000Y4366000D02*
X154070000Y5866000D01*
X138668000Y1866000D02*
X143168000Y1866000D01*
X137418000Y5866000D02*
X137418000Y4366000D01*
X143168000Y8366000D02*
X138668000Y8366000D01*
X144418000Y4366000D02*
X144418000Y5866000D01*
X218790000Y-5095000D02*
X220630000Y-5095000D01*
X220630000Y-5095000D02*
X220630000Y-1255000D01*
X220630000Y-1255000D02*
X218790000Y-1255000D01*
X218790000Y-1255000D02*
X218790000Y-5095000D01*
X219710000Y-6045000D02*
X219710000Y-5095000D01*
X219710000Y-305000D02*
X219710000Y-1255000D01*
X216250000Y-5095000D02*
X218090000Y-5095000D01*
X218090000Y-5095000D02*
X218090000Y-1255000D01*
X218090000Y-1255000D02*
X216250000Y-1255000D01*
X216250000Y-1255000D02*
X216250000Y-5095000D01*
X217170000Y-6045000D02*
X217170000Y-5095000D01*
X217170000Y-305000D02*
X217170000Y-1255000D01*
X230790000Y-1255000D02*
X228950000Y-1255000D01*
X228950000Y-1255000D02*
X228950000Y-5095000D01*
X228950000Y-5095000D02*
X230790000Y-5095000D01*
X230790000Y-5095000D02*
X230790000Y-1255000D01*
X229870000Y-305000D02*
X229870000Y-1255000D01*
X229870000Y-6045000D02*
X229870000Y-5095000D01*
X228250000Y-1255000D02*
X226410000Y-1255000D01*
X226410000Y-1255000D02*
X226410000Y-5095000D01*
X226410000Y-5095000D02*
X228250000Y-5095000D01*
X228250000Y-5095000D02*
X228250000Y-1255000D01*
X227330000Y-305000D02*
X227330000Y-1255000D01*
X227330000Y-6045000D02*
X227330000Y-5095000D01*
X235870000Y-1255000D02*
X234030000Y-1255000D01*
X234030000Y-1255000D02*
X234030000Y-5095000D01*
X234030000Y-5095000D02*
X235870000Y-5095000D01*
X235870000Y-5095000D02*
X235870000Y-1255000D01*
X234950000Y-305000D02*
X234950000Y-1255000D01*
X234950000Y-6045000D02*
X234950000Y-5095000D01*
X233330000Y-1255000D02*
X231490000Y-1255000D01*
X231490000Y-1255000D02*
X231490000Y-5095000D01*
X231490000Y-5095000D02*
X233330000Y-5095000D01*
X233330000Y-5095000D02*
X233330000Y-1255000D01*
X232410000Y-305000D02*
X232410000Y-1255000D01*
X232410000Y-6045000D02*
X232410000Y-5095000D01*
X237390000Y-2818760D02*
X237390000Y2421240D01*
X240130000Y-2818760D02*
X240130000Y2421240D01*
X237390000Y-2818760D02*
X237705000Y-2818760D01*
X239815000Y-2818760D02*
X240130000Y-2818760D01*
X237390000Y2421240D02*
X237705000Y2421240D01*
X239815000Y2421240D02*
X240130000Y2421240D01*
X225710000Y-1535000D02*
X223870000Y-1535000D01*
X223870000Y-1535000D02*
X223870000Y-4815000D01*
X223870000Y-4815000D02*
X225710000Y-4815000D01*
X225710000Y-4815000D02*
X225710000Y-1535000D01*
X224790000Y-355000D02*
X224790000Y-1535000D01*
X224790000Y-5995000D02*
X224790000Y-4815000D01*
X225710000Y-2111000D02*
X223870000Y-2111000D01*
X225710000Y-2231000D02*
X223870000Y-2231000D01*
X225710000Y-1991000D02*
X223870000Y-1991000D01*
X223170000Y-1535000D02*
X221330000Y-1535000D01*
X221330000Y-1535000D02*
X221330000Y-4815000D01*
X221330000Y-4815000D02*
X223170000Y-4815000D01*
X223170000Y-4815000D02*
X223170000Y-1535000D01*
X222250000Y-355000D02*
X222250000Y-1535000D01*
X222250000Y-5995000D02*
X222250000Y-4815000D01*
X223170000Y-2111000D02*
X221330000Y-2111000D01*
X223170000Y-2231000D02*
X221330000Y-2231000D01*
X223170000Y-1991000D02*
X221330000Y-1991000D01*
X237718870Y8064837D02*
G75*
G02X239800961Y8065000I1041130J-1079837D01*
G01*
X237718870Y5905163D02*
G75*
G03X239800961Y5905000I1041130J1079837D01*
G01*
X237087665Y8063608D02*
G75*
G02X240320000Y8220516I1672335J-1078608D01*
G01*
X237087665Y5906392D02*
G75*
G03X240320000Y5749484I1672335J1078608D01*
G01*
X240320000Y5749000D02*
X240320000Y5905000D01*
X240320000Y8065000D02*
X240320000Y8221000D01*
X183650000Y2390000D02*
X179610000Y2390000D01*
X183650000Y5230000D02*
X179610000Y5230000D01*
X183650000Y2390000D02*
X183650000Y3015000D01*
X183650000Y4605000D02*
X183650000Y5230000D01*
X179610000Y2390000D02*
X179610000Y3015000D01*
X179610000Y4605000D02*
X179610000Y5230000D01*
X179570000Y-2390000D02*
X183610000Y-2390000D01*
X179570000Y-5230000D02*
X183610000Y-5230000D01*
X179570000Y-2390000D02*
X179570000Y-3015000D01*
X179570000Y-4605000D02*
X179570000Y-5230000D01*
X183610000Y-2390000D02*
X183610000Y-3015000D01*
X183610000Y-4605000D02*
X183610000Y-5230000D01*
X209780000Y8436000D02*
X214320000Y8436000D01*
X209780000Y6296000D02*
X214320000Y6296000D01*
X209780000Y8436000D02*
X209780000Y8421000D01*
X209780000Y6311000D02*
X209780000Y6296000D01*
X214320000Y8436000D02*
X214320000Y8421000D01*
X214320000Y6311000D02*
X214320000Y6296000D01*
X214320000Y-8848760D02*
X209780000Y-8848760D01*
X214320000Y-6708760D02*
X209780000Y-6708760D01*
X214320000Y-8848760D02*
X214320000Y-8833760D01*
X214320000Y-6723760D02*
X214320000Y-6708760D01*
X209780000Y-8848760D02*
X209780000Y-8833760D01*
X209780000Y-6723760D02*
X209780000Y-6708760D01*
D12*
X226861904Y11922619D02*
X226861904Y11113095D01*
X226909523Y11017857D01*
X226957142Y10970238D01*
X227052380Y10922619D01*
X227242857Y10922619D01*
X227338095Y10970238D01*
X227385714Y11017857D01*
X227433333Y11113095D01*
X227433333Y11922619D01*
X227861904Y10970238D02*
X228004761Y10922619D01*
X228242857Y10922619D01*
X228338095Y10970238D01*
X228385714Y11017857D01*
X228433333Y11113095D01*
X228433333Y11208333D01*
X228385714Y11303571D01*
X228338095Y11351190D01*
X228242857Y11398809D01*
X228052380Y11446428D01*
X227957142Y11494047D01*
X227909523Y11541666D01*
X227861904Y11636904D01*
X227861904Y11732142D01*
X227909523Y11827380D01*
X227957142Y11875000D01*
X228052380Y11922619D01*
X228290476Y11922619D01*
X228433333Y11875000D01*
X229195238Y11446428D02*
X229338095Y11398809D01*
X229385714Y11351190D01*
X229433333Y11255952D01*
X229433333Y11113095D01*
X229385714Y11017857D01*
X229338095Y10970238D01*
X229242857Y10922619D01*
X228861904Y10922619D01*
X228861904Y11922619D01*
X229195238Y11922619D01*
X229290476Y11875000D01*
X229338095Y11827380D01*
X229385714Y11732142D01*
X229385714Y11636904D01*
X229338095Y11541666D01*
X229290476Y11494047D01*
X229195238Y11446428D01*
X228861904Y11446428D01*
X230385714Y10922619D02*
X229814285Y10922619D01*
X230100000Y10922619D02*
X230100000Y11922619D01*
X230004761Y11779761D01*
X229909523Y11684523D01*
X229814285Y11636904D01*
X207522380Y-1015904D02*
X208331904Y-1015904D01*
X208427142Y-968285D01*
X208474761Y-920666D01*
X208522380Y-825428D01*
X208522380Y-634952D01*
X208474761Y-539714D01*
X208427142Y-492095D01*
X208331904Y-444476D01*
X207522380Y-444476D01*
X208522380Y555523D02*
X208522380Y-15904D01*
X208522380Y269809D02*
X207522380Y269809D01*
X207665238Y174571D01*
X207760476Y79333D01*
X207808095Y-15904D01*
X235799333Y-8993142D02*
X235751714Y-9040761D01*
X235608857Y-9088380D01*
X235513619Y-9088380D01*
X235370761Y-9040761D01*
X235275523Y-8945523D01*
X235227904Y-8850285D01*
X235180285Y-8659809D01*
X235180285Y-8516952D01*
X235227904Y-8326476D01*
X235275523Y-8231238D01*
X235370761Y-8136000D01*
X235513619Y-8088380D01*
X235608857Y-8088380D01*
X235751714Y-8136000D01*
X235799333Y-8183619D01*
X236704095Y-8088380D02*
X236227904Y-8088380D01*
X236180285Y-8564571D01*
X236227904Y-8516952D01*
X236323142Y-8469333D01*
X236561238Y-8469333D01*
X236656476Y-8516952D01*
X236704095Y-8564571D01*
X236751714Y-8659809D01*
X236751714Y-8897904D01*
X236704095Y-8993142D01*
X236656476Y-9040761D01*
X236561238Y-9088380D01*
X236323142Y-9088380D01*
X236227904Y-9040761D01*
X236180285Y-8993142D01*
X212066190Y-630190D02*
X212542380Y-630190D01*
X211542380Y-963523D02*
X212066190Y-630190D01*
X211542380Y-296857D01*
X212542380Y560285D02*
X212542380Y-11142D01*
X212542380Y274571D02*
X211542380Y274571D01*
X211685238Y179333D01*
X211780476Y84095D01*
X211828095Y-11142D01*
X217622380Y-3341666D02*
X217146190Y-3675000D01*
X217622380Y-3913095D02*
X216622380Y-3913095D01*
X216622380Y-3532142D01*
X216670000Y-3436904D01*
X216717619Y-3389285D01*
X216812857Y-3341666D01*
X216955714Y-3341666D01*
X217050952Y-3389285D01*
X217098571Y-3436904D01*
X217146190Y-3532142D01*
X217146190Y-3913095D01*
X216622380Y-2484523D02*
X216622380Y-2675000D01*
X216670000Y-2770238D01*
X216717619Y-2817857D01*
X216860476Y-2913095D01*
X217050952Y-2960714D01*
X217431904Y-2960714D01*
X217527142Y-2913095D01*
X217574761Y-2865476D01*
X217622380Y-2770238D01*
X217622380Y-2579761D01*
X217574761Y-2484523D01*
X217527142Y-2436904D01*
X217431904Y-2389285D01*
X217193809Y-2389285D01*
X217098571Y-2436904D01*
X217050952Y-2484523D01*
X217003333Y-2579761D01*
X217003333Y-2770238D01*
X217050952Y-2865476D01*
X217098571Y-2913095D01*
X217193809Y-2960714D01*
X220162380Y-3341666D02*
X219686190Y-3675000D01*
X220162380Y-3913095D02*
X219162380Y-3913095D01*
X219162380Y-3532142D01*
X219210000Y-3436904D01*
X219257619Y-3389285D01*
X219352857Y-3341666D01*
X219495714Y-3341666D01*
X219590952Y-3389285D01*
X219638571Y-3436904D01*
X219686190Y-3532142D01*
X219686190Y-3913095D01*
X219162380Y-2436904D02*
X219162380Y-2913095D01*
X219638571Y-2960714D01*
X219590952Y-2913095D01*
X219543333Y-2817857D01*
X219543333Y-2579761D01*
X219590952Y-2484523D01*
X219638571Y-2436904D01*
X219733809Y-2389285D01*
X219971904Y-2389285D01*
X220067142Y-2436904D01*
X220114761Y-2484523D01*
X220162380Y-2579761D01*
X220162380Y-2817857D01*
X220114761Y-2913095D01*
X220067142Y-2960714D01*
X227782380Y-3341666D02*
X227306190Y-3675000D01*
X227782380Y-3913095D02*
X226782380Y-3913095D01*
X226782380Y-3532142D01*
X226830000Y-3436904D01*
X226877619Y-3389285D01*
X226972857Y-3341666D01*
X227115714Y-3341666D01*
X227210952Y-3389285D01*
X227258571Y-3436904D01*
X227306190Y-3532142D01*
X227306190Y-3913095D01*
X227115714Y-2484523D02*
X227782380Y-2484523D01*
X226734761Y-2722619D02*
X227449047Y-2960714D01*
X227449047Y-2341666D01*
X230322380Y-3341666D02*
X229846190Y-3675000D01*
X230322380Y-3913095D02*
X229322380Y-3913095D01*
X229322380Y-3532142D01*
X229370000Y-3436904D01*
X229417619Y-3389285D01*
X229512857Y-3341666D01*
X229655714Y-3341666D01*
X229750952Y-3389285D01*
X229798571Y-3436904D01*
X229846190Y-3532142D01*
X229846190Y-3913095D01*
X229322380Y-3008333D02*
X229322380Y-2389285D01*
X229703333Y-2722619D01*
X229703333Y-2579761D01*
X229750952Y-2484523D01*
X229798571Y-2436904D01*
X229893809Y-2389285D01*
X230131904Y-2389285D01*
X230227142Y-2436904D01*
X230274761Y-2484523D01*
X230322380Y-2579761D01*
X230322380Y-2865476D01*
X230274761Y-2960714D01*
X230227142Y-3008333D01*
X232862380Y-3341666D02*
X232386190Y-3675000D01*
X232862380Y-3913095D02*
X231862380Y-3913095D01*
X231862380Y-3532142D01*
X231910000Y-3436904D01*
X231957619Y-3389285D01*
X232052857Y-3341666D01*
X232195714Y-3341666D01*
X232290952Y-3389285D01*
X232338571Y-3436904D01*
X232386190Y-3532142D01*
X232386190Y-3913095D01*
X231957619Y-2960714D02*
X231910000Y-2913095D01*
X231862380Y-2817857D01*
X231862380Y-2579761D01*
X231910000Y-2484523D01*
X231957619Y-2436904D01*
X232052857Y-2389285D01*
X232148095Y-2389285D01*
X232290952Y-2436904D01*
X232862380Y-3008333D01*
X232862380Y-2389285D01*
X235402380Y-3341666D02*
X234926190Y-3675000D01*
X235402380Y-3913095D02*
X234402380Y-3913095D01*
X234402380Y-3532142D01*
X234450000Y-3436904D01*
X234497619Y-3389285D01*
X234592857Y-3341666D01*
X234735714Y-3341666D01*
X234830952Y-3389285D01*
X234878571Y-3436904D01*
X234926190Y-3532142D01*
X234926190Y-3913095D01*
X235402380Y-2389285D02*
X235402380Y-2960714D01*
X235402380Y-2675000D02*
X234402380Y-2675000D01*
X234545238Y-2770238D01*
X234640476Y-2865476D01*
X234688095Y-2960714D01*
X238688571Y-492093D02*
X238688571Y-825426D01*
X239212380Y-825426D02*
X238212380Y-825426D01*
X238212380Y-349236D01*
X239212380Y555525D02*
X239212380Y-15902D01*
X239212380Y269811D02*
X238212380Y269811D01*
X238355238Y174573D01*
X238450476Y79335D01*
X238498095Y-15902D01*
X222702380Y-3913095D02*
X221702380Y-3913095D01*
X221702380Y-3675000D01*
X221750000Y-3532142D01*
X221845238Y-3436904D01*
X221940476Y-3389285D01*
X222130952Y-3341666D01*
X222273809Y-3341666D01*
X222464285Y-3389285D01*
X222559523Y-3436904D01*
X222654761Y-3532142D01*
X222702380Y-3675000D01*
X222702380Y-3913095D01*
X221702380Y-3008333D02*
X221702380Y-2389285D01*
X222083333Y-2722619D01*
X222083333Y-2579761D01*
X222130952Y-2484523D01*
X222178571Y-2436904D01*
X222273809Y-2389285D01*
X222511904Y-2389285D01*
X222607142Y-2436904D01*
X222654761Y-2484523D01*
X222702380Y-2579761D01*
X222702380Y-2865476D01*
X222654761Y-2960714D01*
X222607142Y-3008333D01*
X225242380Y-3913095D02*
X224242380Y-3913095D01*
X224242380Y-3675000D01*
X224290000Y-3532142D01*
X224385238Y-3436904D01*
X224480476Y-3389285D01*
X224670952Y-3341666D01*
X224813809Y-3341666D01*
X225004285Y-3389285D01*
X225099523Y-3436904D01*
X225194761Y-3532142D01*
X225242380Y-3675000D01*
X225242380Y-3913095D01*
X224337619Y-2960714D02*
X224290000Y-2913095D01*
X224242380Y-2817857D01*
X224242380Y-2579761D01*
X224290000Y-2484523D01*
X224337619Y-2436904D01*
X224432857Y-2389285D01*
X224528095Y-2389285D01*
X224670952Y-2436904D01*
X225242380Y-3008333D01*
X225242380Y-2389285D01*
X234846904Y7802619D02*
X234846904Y8802619D01*
X235085000Y8802619D01*
X235227857Y8755000D01*
X235323095Y8659761D01*
X235370714Y8564523D01*
X235418333Y8374047D01*
X235418333Y8231190D01*
X235370714Y8040714D01*
X235323095Y7945476D01*
X235227857Y7850238D01*
X235085000Y7802619D01*
X234846904Y7802619D01*
X236370714Y7802619D02*
X235799285Y7802619D01*
X236085000Y7802619D02*
X236085000Y8802619D01*
X235989761Y8659761D01*
X235894523Y8564523D01*
X235799285Y8516904D01*
X181442885Y1151005D02*
X181395266Y1103386D01*
X181252409Y1055767D01*
X181157171Y1055767D01*
X181014313Y1103386D01*
X180919075Y1198624D01*
X180871456Y1293862D01*
X180823837Y1484338D01*
X180823837Y1627195D01*
X180871456Y1817671D01*
X180919075Y1912909D01*
X181014313Y2008148D01*
X181157171Y2055767D01*
X181252409Y2055767D01*
X181395266Y2008148D01*
X181442885Y1960528D01*
X182300028Y1722433D02*
X182300028Y1055767D01*
X182061932Y2103386D02*
X181823837Y1389100D01*
X182442885Y1389100D01*
X181423333Y-1944646D02*
X181375714Y-1992265D01*
X181232857Y-2039884D01*
X181137619Y-2039884D01*
X180994761Y-1992265D01*
X180899523Y-1897027D01*
X180851904Y-1801789D01*
X180804285Y-1611313D01*
X180804285Y-1468456D01*
X180851904Y-1277980D01*
X180899523Y-1182742D01*
X180994761Y-1087504D01*
X181137619Y-1039884D01*
X181232857Y-1039884D01*
X181375714Y-1087504D01*
X181423333Y-1135123D01*
X181756666Y-1039884D02*
X182375714Y-1039884D01*
X182042380Y-1420837D01*
X182185238Y-1420837D01*
X182280476Y-1468456D01*
X182328095Y-1516075D01*
X182375714Y-1611313D01*
X182375714Y-1849408D01*
X182328095Y-1944646D01*
X182280476Y-1992265D01*
X182185238Y-2039884D01*
X181899523Y-2039884D01*
X181804285Y-1992265D01*
X181756666Y-1944646D01*
X211883333Y7008857D02*
X211835714Y6961238D01*
X211692857Y6913619D01*
X211597619Y6913619D01*
X211454761Y6961238D01*
X211359523Y7056476D01*
X211311904Y7151714D01*
X211264285Y7342190D01*
X211264285Y7485047D01*
X211311904Y7675523D01*
X211359523Y7770761D01*
X211454761Y7866000D01*
X211597619Y7913619D01*
X211692857Y7913619D01*
X211835714Y7866000D01*
X211883333Y7818380D01*
X212264285Y7818380D02*
X212311904Y7866000D01*
X212407142Y7913619D01*
X212645238Y7913619D01*
X212740476Y7866000D01*
X212788095Y7818380D01*
X212835714Y7723142D01*
X212835714Y7627904D01*
X212788095Y7485047D01*
X212216666Y6913619D01*
X212835714Y6913619D01*
X211883333Y-8135902D02*
X211835714Y-8183521D01*
X211692857Y-8231140D01*
X211597619Y-8231140D01*
X211454761Y-8183521D01*
X211359523Y-8088283D01*
X211311904Y-7993045D01*
X211264285Y-7802569D01*
X211264285Y-7659712D01*
X211311904Y-7469236D01*
X211359523Y-7373998D01*
X211454761Y-7278760D01*
X211597619Y-7231140D01*
X211692857Y-7231140D01*
X211835714Y-7278760D01*
X211883333Y-7326379D01*
X212835714Y-8231140D02*
X212264285Y-8231140D01*
X212550000Y-8231140D02*
X212550000Y-7231140D01*
X212454761Y-7373998D01*
X212359523Y-7469236D01*
X212264285Y-7516855D01*
%LPC*%
D10*
G36*
X150788000Y-8080000D02*
G01*
X139788000Y-8080000D01*
X139788000Y-1830000D01*
X150788000Y-1830000D01*
X150788000Y-8080000D01*
G37*
X150788000Y-8080000D02*
X139788000Y-8080000D01*
X139788000Y-1830000D01*
X150788000Y-1830000D01*
X150788000Y-8080000D01*
D14*
X229875000Y3425000D03*
X231575000Y3425000D03*
X230725000Y3425000D03*
X229025000Y3425000D03*
X228175000Y3425000D03*
X227325000Y3425000D03*
X226475000Y3425000D03*
X225625000Y3425000D03*
X231575000Y4750000D03*
X230720000Y4750000D03*
X229870000Y4750000D03*
X229020000Y4750000D03*
X228170000Y4750000D03*
X227320000Y4750000D03*
X226470000Y4750000D03*
X225620000Y4750000D03*
D15*
X232925000Y4405000D03*
X224275000Y4405000D03*
D16*
X232925000Y7785000D03*
X224275000Y7785000D03*
D17*
X5080000Y-19843798D03*
X-5080000Y-19843798D03*
D18*
X0Y-19843798D03*
D17*
X28892500Y-38893846D03*
X18732500Y-38893846D03*
D18*
X23812500Y-38893846D03*
D17*
X7461250Y-38893750D03*
X-2698750Y-38893750D03*
D18*
X2381250Y-38893750D03*
D17*
X12223750Y-57943750D03*
X2063750Y-57943750D03*
D18*
X7143750Y-57943750D03*
D19*
X205740000Y-7874000D03*
X157480000Y7366000D03*
X203200000Y-7874000D03*
X160020000Y7366000D03*
X200660000Y-7874000D03*
X162560000Y7366000D03*
X198120000Y-7874000D03*
X165100000Y7366000D03*
X195580000Y-7874000D03*
X167640000Y7366000D03*
X193040000Y-7874000D03*
X170180000Y7366000D03*
X190500000Y-7874000D03*
X172720000Y7366000D03*
X187960000Y-7874000D03*
X175260000Y7366000D03*
X185420000Y-7874000D03*
X177800000Y7366000D03*
X182880000Y-7874000D03*
X180340000Y7366000D03*
X180340000Y-7874000D03*
X182880000Y7366000D03*
X177800000Y-7874000D03*
X185420000Y7366000D03*
X175260000Y-7874000D03*
X187960000Y7366000D03*
X172720000Y-7874000D03*
X190500000Y7366000D03*
X170180000Y-7874000D03*
X193040000Y7366000D03*
X167640000Y-7874000D03*
X195580000Y7366000D03*
X165100000Y-7874000D03*
X198120000Y7366000D03*
X162560000Y-7874000D03*
X200660000Y7366000D03*
X160020000Y-7874000D03*
X203200000Y7366000D03*
X157480000Y-7874000D03*
D20*
X205740000Y7366000D03*
D18*
X50006250Y-76993750D03*
D17*
X44926250Y-76993750D03*
X55086250Y-76993750D03*
D18*
X52387632Y-57943894D03*
D17*
X47307632Y-57943894D03*
X57467632Y-57943894D03*
D21*
X55880000Y-2286000D03*
D22*
X55880000Y5334000D03*
D21*
X67056000Y-6858000D03*
D22*
X67056000Y762000D03*
D21*
X75438000Y-2286000D03*
D22*
X75438000Y5334000D03*
D21*
X81026000Y-762000D03*
D22*
X81026000Y6858000D03*
D21*
X92202000Y-6858000D03*
D22*
X92202000Y762000D03*
D21*
X8636000Y-6858000D03*
D22*
X8636000Y762000D03*
D21*
X30734000Y-3810000D03*
D22*
X30734000Y3810000D03*
D21*
X36322000Y-6858000D03*
D22*
X36322000Y762000D03*
D21*
X5842000Y-5334000D03*
D22*
X5842000Y2286000D03*
D21*
X53086000Y-762000D03*
D22*
X53086000Y6858000D03*
D21*
X64262000Y-6858000D03*
D22*
X64262000Y762000D03*
D21*
X78232000Y-762000D03*
D22*
X78232000Y6858000D03*
D21*
X100584000Y-3810000D03*
D22*
X100584000Y3810000D03*
D21*
X108966000Y-762000D03*
D22*
X108966000Y6858000D03*
D21*
X117348000Y-5334000D03*
D22*
X117348000Y2286000D03*
D21*
X125730000Y-5334000D03*
D22*
X125730000Y2286000D03*
D21*
X89408000Y-5334000D03*
D22*
X89408000Y2286000D03*
D21*
X11430000Y-6858000D03*
D22*
X11430000Y762000D03*
D21*
X14224000Y-5334000D03*
D22*
X14224000Y2286000D03*
D21*
X27940000Y-2286000D03*
D22*
X27940000Y5334000D03*
D21*
X33528000Y-5334000D03*
D22*
X33528000Y2286000D03*
D21*
X3048000Y-3810000D03*
D22*
X3048000Y3810000D03*
D21*
X134112000Y-762000D03*
D22*
X134112000Y6858000D03*
D21*
X61468000Y-5334000D03*
D22*
X61468000Y2286000D03*
D21*
X72644000Y-3937000D03*
D22*
X72644000Y3683000D03*
D21*
X97790000Y-5334000D03*
D22*
X97790000Y2286000D03*
D21*
X106172000Y-762000D03*
D22*
X106172000Y6858000D03*
D21*
X114554000Y-3810000D03*
D22*
X114554000Y3810000D03*
D21*
X122936000Y-6858000D03*
D22*
X122936000Y762000D03*
D21*
X131318000Y-2286000D03*
D22*
X131318000Y5334000D03*
D21*
X86614000Y-3810000D03*
D22*
X86614000Y3810000D03*
D21*
X17018000Y-3810000D03*
D22*
X17018000Y3810000D03*
D21*
X22352000Y-762000D03*
D22*
X22352000Y6858000D03*
D21*
X47498000Y-2286000D03*
D22*
X47498000Y5334000D03*
D21*
X41910000Y-5334000D03*
D22*
X41910000Y2286000D03*
D21*
X254000Y-2286000D03*
D22*
X254000Y5334000D03*
D21*
X50292000Y-762000D03*
D22*
X50292000Y6858000D03*
D21*
X58674000Y-3810000D03*
D22*
X58674000Y3810000D03*
D21*
X69850000Y-5334000D03*
D22*
X69850000Y2286000D03*
D21*
X94996000Y-6858000D03*
D22*
X94996000Y762000D03*
D21*
X103378000Y-2286000D03*
D22*
X103378000Y5334000D03*
D21*
X111760000Y-2286000D03*
D22*
X111760000Y5334000D03*
D21*
X120142000Y-6858000D03*
D22*
X120142000Y762000D03*
D21*
X128524000Y-3810000D03*
D22*
X128524000Y3810000D03*
D21*
X83820000Y-2286000D03*
D22*
X83820000Y5334000D03*
D21*
X19558000Y-2286000D03*
D22*
X19558000Y5334000D03*
X25146000Y6858000D03*
D21*
X25146000Y-762000D03*
D22*
X44704000Y3810000D03*
D21*
X44704000Y-3810000D03*
X39116000Y-6858000D03*
D22*
X39116000Y762000D03*
D21*
X-2540000Y-762000D03*
D22*
X-2540000Y6858000D03*
D23*
X238252000Y-7112000D03*
D24*
X239752000Y-7112000D03*
D25*
X265486142Y-82970986D03*
X264319416Y-82487712D03*
X263152690Y-82970986D03*
X262669416Y-84137712D03*
X263152690Y-85304438D03*
X264319416Y-85787712D03*
X265486142Y-85304438D03*
X265969416Y-84137712D03*
D26*
X264319416Y-84137712D03*
D25*
X265486142Y-11533306D03*
X264319416Y-11050032D03*
X263152690Y-11533306D03*
X262669416Y-12700032D03*
X263152690Y-13866758D03*
X264319416Y-14350032D03*
X265486142Y-13866758D03*
X265969416Y-12700032D03*
D26*
X264319416Y-12700032D03*
X-7143768Y-84137712D03*
D25*
X-5493768Y-84137712D03*
X-5977042Y-85304438D03*
X-7143768Y-85787712D03*
X-8310494Y-85304438D03*
X-8793768Y-84137712D03*
X-8310494Y-82970986D03*
X-7143768Y-82487712D03*
X-5977042Y-82970986D03*
D26*
X-7143768Y-12700032D03*
D25*
X-5493768Y-12700032D03*
X-5977042Y-13866758D03*
X-7143768Y-14350032D03*
X-8310494Y-13866758D03*
X-8793768Y-12700032D03*
X-8310494Y-11533306D03*
X-7143768Y-11050032D03*
X-5977042Y-11533306D03*
X245642344Y-5977044D03*
X244475618Y-5493770D03*
X243308892Y-5977044D03*
X242825618Y-7143770D03*
X243308892Y-8310496D03*
X244475618Y-8793770D03*
X245642344Y-8310496D03*
X246125618Y-7143770D03*
D26*
X244475618Y-7143770D03*
D25*
X245642344Y8310494D03*
X244475618Y8793768D03*
X243308892Y8310494D03*
X242825618Y7143768D03*
X243308892Y5977042D03*
X244475618Y5493768D03*
X245642344Y5977042D03*
X246125618Y7143768D03*
D26*
X244475618Y7143768D03*
X-7143768Y-7143770D03*
D25*
X-5493768Y-7143770D03*
X-5977042Y-8310496D03*
X-7143768Y-8793770D03*
X-8310494Y-8310496D03*
X-8793768Y-7143770D03*
X-8310494Y-5977044D03*
X-7143768Y-5493770D03*
X-5977042Y-5977044D03*
D26*
X-7143768Y7143768D03*
D25*
X-5493768Y7143768D03*
X-5977042Y5977042D03*
X-7143768Y5493768D03*
X-8310494Y5977042D03*
X-8793768Y7143768D03*
X-8310494Y8310494D03*
X-7143768Y8793768D03*
X-5977042Y8310494D03*
D27*
X212090000Y-2594000D03*
X212090000Y2286000D03*
D28*
X254675648Y-7500000D03*
D29*
X257175648Y-7500000D03*
D28*
X259675648Y-7500000D03*
D30*
X251575648Y0D03*
D31*
X262775648Y0D03*
D28*
X254675648Y7000000D03*
X259675648Y7000000D03*
X153820000Y7366000D03*
X153820000Y2866000D03*
X147320000Y7366000D03*
X147320000Y2866000D03*
X144168000Y7366000D03*
X144168000Y2866000D03*
X137668000Y7366000D03*
X137668000Y2866000D03*
D32*
X219710000Y635000D03*
D33*
X219710000Y-6985000D03*
D32*
X217170000Y635000D03*
D33*
X217170000Y-6985000D03*
D32*
X229870000Y-6985000D03*
D33*
X229870000Y635000D03*
D32*
X227330000Y-6985000D03*
D33*
X227330000Y635000D03*
D32*
X234950000Y-6985000D03*
D33*
X234950000Y635000D03*
D32*
X232410000Y-6985000D03*
D33*
X232410000Y635000D03*
D34*
X238760000Y2301240D03*
X238760000Y-2698760D03*
D21*
X224790000Y-6985000D03*
D22*
X224790000Y635000D03*
D21*
X222250000Y-6985000D03*
D22*
X222250000Y635000D03*
D35*
X237490000Y6985000D03*
D36*
X240030000Y6985000D03*
D34*
X180380000Y3810000D03*
X182880000Y3810000D03*
X182840000Y-3810000D03*
X180340000Y-3810000D03*
X214550000Y7366000D03*
X209550000Y7366000D03*
X209550000Y-7778760D03*
X214550000Y-7778760D03*
D18*
X254794392Y-76993944D03*
D17*
X249714392Y-76993944D03*
X259874392Y-76993944D03*
D18*
X230981832Y-76993944D03*
D17*
X225901832Y-76993944D03*
X236061832Y-76993944D03*
D18*
X207169272Y-76993944D03*
D17*
X202089272Y-76993944D03*
X212249272Y-76993944D03*
D18*
X166687920Y-76993944D03*
D17*
X161607920Y-76993944D03*
X171767920Y-76993944D03*
D37*
X147637920Y-83978944D03*
X185737920Y-83978944D03*
D18*
X147637920Y-68738944D03*
X185737920Y-68738944D03*
X128587824Y-76993944D03*
D17*
X123507824Y-76993944D03*
X133667824Y-76993944D03*
D37*
X71437824Y-83978944D03*
X185737824Y-83978944D03*
D18*
X71437824Y-68738944D03*
X185737824Y-68738944D03*
X90487728Y-76993944D03*
D17*
X85407728Y-76993944D03*
X95567728Y-76993944D03*
D37*
X71437728Y-83978944D03*
X109537728Y-83978944D03*
D18*
X71437728Y-68738944D03*
X109537728Y-68738944D03*
X26193750Y-76993944D03*
D17*
X21113750Y-76993944D03*
X31273750Y-76993944D03*
D18*
X2381250Y-76993944D03*
D17*
X-2698750Y-76993944D03*
X7461250Y-76993944D03*
D18*
X240506856Y-57943896D03*
D17*
X235426856Y-57943896D03*
X245586856Y-57943896D03*
D37*
X228600606Y-50958896D03*
X252413106Y-50958896D03*
D18*
X228600606Y-66198896D03*
X252413106Y-66198896D03*
X257175648Y-57943896D03*
D17*
X252095648Y-57943896D03*
X262255648Y-57943896D03*
D18*
X230981832Y-57943896D03*
D17*
X225901832Y-57943896D03*
X236061832Y-57943896D03*
D18*
X204788016Y-57943896D03*
D17*
X199708016Y-57943896D03*
X209868016Y-57943896D03*
D18*
X185737968Y-57943896D03*
D17*
X180657968Y-57943896D03*
X190817968Y-57943896D03*
D18*
X166687920Y-57943896D03*
D17*
X161607920Y-57943896D03*
X171767920Y-57943896D03*
D18*
X147637872Y-57943894D03*
D17*
X142557872Y-57943894D03*
X152717872Y-57943894D03*
D18*
X128587824Y-57943894D03*
D17*
X123507824Y-57943894D03*
X133667824Y-57943894D03*
D18*
X109537776Y-57943894D03*
D17*
X104457776Y-57943894D03*
X114617776Y-57943894D03*
D18*
X90487728Y-57943894D03*
D17*
X85407728Y-57943894D03*
X95567728Y-57943894D03*
D18*
X71437680Y-57943894D03*
D17*
X66357680Y-57943894D03*
X76517680Y-57943894D03*
D18*
X33337584Y-57943894D03*
D17*
X28257584Y-57943894D03*
X38417584Y-57943894D03*
D18*
X233363088Y-38893846D03*
D17*
X228283088Y-38893846D03*
X238443088Y-38893846D03*
D18*
X257175648Y-2D03*
D17*
X252095648Y-2D03*
X262255648Y-2D03*
D18*
X245269368Y-38893848D03*
D17*
X240189368Y-38893848D03*
X250349368Y-38893848D03*
D37*
X233363118Y-31908848D03*
X257175618Y-31908848D03*
D18*
X233363118Y-47148848D03*
X257175618Y-47148848D03*
X214313040Y-38893848D03*
D17*
X209233040Y-38893848D03*
X219393040Y-38893848D03*
D18*
X195262992Y-38893848D03*
D17*
X190182992Y-38893848D03*
X200342992Y-38893848D03*
D18*
X176212944Y-38893848D03*
D17*
X171132944Y-38893848D03*
X181292944Y-38893848D03*
D18*
X157162896Y-38893848D03*
D17*
X152082896Y-38893848D03*
X162242896Y-38893848D03*
D18*
X138112848Y-38893848D03*
D17*
X133032848Y-38893848D03*
X143192848Y-38893848D03*
D18*
X119062800Y-38893848D03*
D17*
X113982800Y-38893848D03*
X124142800Y-38893848D03*
D18*
X100012752Y-38893846D03*
D17*
X94932752Y-38893846D03*
X105092752Y-38893846D03*
D18*
X80962704Y-38893846D03*
D17*
X75882704Y-38893846D03*
X86042704Y-38893846D03*
D18*
X61912656Y-38893846D03*
D17*
X56832656Y-38893846D03*
X66992656Y-38893846D03*
D18*
X42862608Y-38893846D03*
D17*
X37782608Y-38893846D03*
X47942608Y-38893846D03*
D18*
X246539392Y-17430822D03*
X246539392Y-41306822D03*
D37*
X261779392Y-17430822D03*
X261779392Y-41306822D03*
D17*
X254794392Y-34448822D03*
X254794392Y-24288822D03*
D18*
X254794392Y-29368822D03*
X252413136Y-19843798D03*
D17*
X247333136Y-19843798D03*
X257493136Y-19843798D03*
D18*
X228600576Y-19843798D03*
D17*
X223520576Y-19843798D03*
X233680576Y-19843798D03*
D18*
X209550528Y-19843798D03*
D17*
X204470528Y-19843798D03*
X214630528Y-19843798D03*
D18*
X190500480Y-19843798D03*
D17*
X185420480Y-19843798D03*
X195580480Y-19843798D03*
D18*
X171450432Y-19843798D03*
D17*
X166370432Y-19843798D03*
X176530432Y-19843798D03*
D18*
X152400384Y-19843798D03*
D17*
X147320384Y-19843798D03*
X157480384Y-19843798D03*
D18*
X133350336Y-19843798D03*
D17*
X128270336Y-19843798D03*
X138430336Y-19843798D03*
D18*
X114300288Y-19843798D03*
D17*
X109220288Y-19843798D03*
X119380288Y-19843798D03*
D18*
X95250240Y-19843798D03*
D17*
X90170240Y-19843798D03*
X100330240Y-19843798D03*
D18*
X76200192Y-19843798D03*
D17*
X71120192Y-19843798D03*
X81280192Y-19843798D03*
D18*
X57150144Y-19843798D03*
D17*
X52070144Y-19843798D03*
X62230144Y-19843798D03*
D18*
X38100096Y-19843798D03*
D17*
X33020096Y-19843798D03*
X43180096Y-19843798D03*
D18*
X19050048Y-19843798D03*
D17*
X13970048Y-19843798D03*
X24130048Y-19843798D03*
M02*
