M48
; DRILL file {KiCad (5.1.4)-1} date 14 May 2023 12:18:45 am
; FORMAT={-:-/ absolute / inch / decimal}
; #@! TF.CreationDate,2023-05-14T00:18:45+08:00
; #@! TF.GenerationSoftware,Kicad,Pcbnew,(5.1.4)-1
; #@! TF.FileFunction,NonPlated,1,2,NPTH
FMAT,2
INCH
T1C0.0689
T2C0.1200
T3C0.1570
%
G90
G05
T1
X8.8938Y-2.2813
X9.2938Y-2.2813
X4.8625Y-2.2813
X5.2625Y-2.2813
X8.05Y-0.7813
X8.45Y-0.7813
X4.8625Y-3.0313
X5.2625Y-3.0313
X1.1125Y-2.2813
X1.5125Y-2.2813
X8.8Y-0.7813
X9.2Y-0.7813
X9.4563Y-1.5313
X9.8563Y-1.5313
X1.8625Y-2.2813
X2.2625Y-2.2813
X2.8Y-0.7813
X3.2Y-0.7813
X9.2688Y-2.2813
X9.6688Y-2.2813
X5.05Y-0.7813
X5.45Y-0.7813
X10.0313Y-0.9563
X10.0313Y-1.3563
X6.3625Y-3.0313
X6.7625Y-3.0313
X4.3Y-0.7813
X4.7Y-0.7813
X5.2375Y-1.5313
X5.6375Y-1.5313
X2.9875Y-1.5313
X3.3875Y-1.5313
X0.0813Y-2.2812
X0.4813Y-2.2812
X-0.1062Y-3.0313
X0.2938Y-3.0313
X2.6125Y-2.2813
X3.0125Y-2.2813
X7.8625Y-2.2813
X8.2625Y-2.2813
X9.925Y-0.0
X10.325Y-0.0
X6.3625Y-2.2813
X6.7625Y-2.2813
X5.9875Y-1.5313
X6.3875Y-1.5313
X0.7375Y-1.5313
X1.1375Y-1.5313
X6.55Y-0.7813
X6.95Y-0.7813
X3.3625Y-3.0313
X3.7625Y-3.0313
X7.4875Y-1.5313
X7.8875Y-1.5313
X2.05Y-0.7813
X2.45Y-0.7813
X-0.2Y-0.7813
X0.2Y-0.7813
X0.55Y-0.7813
X0.95Y-0.7813
X7.9563Y-3.0313
X8.3563Y-3.0313
X7.3Y-0.7813
X7.7Y-0.7813
X6.7375Y-1.5313
X7.1375Y-1.5313
X3.55Y-0.7813
X3.95Y-0.7813
X3.7375Y-1.5313
X4.1375Y-1.5313
X2.2375Y-1.5313
X2.6375Y-1.5313
X9.925Y-2.2813
X10.325Y-2.2813
X8.9875Y-1.5313
X9.3875Y-1.5313
X1.3Y-0.7813
X1.7Y-0.7813
X7.1125Y-2.2813
X7.5125Y-2.2813
X8.2375Y-1.5313
X8.6375Y-1.5313
X1.7688Y-3.0312
X2.1687Y-3.0312
X5.6125Y-2.2813
X6.0125Y-2.2813
X5.8Y-0.7813
X6.2Y-0.7813
X9.8313Y-3.0313
X10.2313Y-3.0313
X1.4875Y-1.5313
X1.8875Y-1.5313
X8.8938Y-3.0313
X9.2938Y-3.0313
X0.8312Y-3.0313
X1.2312Y-3.0313
X-0.1062Y-1.5312
X0.2938Y-1.5312
X9.7375Y-0.7813
X10.1375Y-0.7813
X4.4875Y-1.5313
X4.8875Y-1.5313
X3.3625Y-2.2813
X3.7625Y-2.2813
X4.1125Y-2.2813
X4.5125Y-2.2813
T2
X2.8125Y-3.3063
X7.3125Y-3.3063
X9.1875Y-1.2563
X10.125Y-1.2563
X9.0Y-2.0063
X9.9375Y-2.0063
X10.3063Y-0.6863
X10.3063Y-1.6263
X5.8125Y-3.3063
X7.3125Y-3.3063
X2.8125Y-3.3063
X4.3125Y-3.3063
T3
X4.3125Y-2.2813
X9.0938Y-2.2813
X5.0625Y-2.2813
X8.25Y-0.7813
X2.8125Y-2.7063
X5.0625Y-3.0313
X7.3125Y-2.7063
X1.3125Y-2.2813
X9.0Y-0.7813
X9.1875Y-1.8563
X9.6563Y-1.5313
X10.125Y-1.8563
X2.0625Y-2.2813
X3.0Y-0.7813
X9.0Y-2.6063
X9.4688Y-2.2813
X9.9375Y-2.6063
X5.25Y-0.7813
X9.7063Y-0.6863
X9.7063Y-1.6263
X10.0313Y-1.1563
X5.8125Y-2.7063
X6.5625Y-3.0313
X7.3125Y-2.7063
X4.5Y-0.7813
X5.4375Y-1.5313
X3.1875Y-1.5313
X0.2812Y-2.2812
X0.0938Y-3.0313
X2.8125Y-2.2813
X8.0625Y-2.2813
X10.125Y-0.0
X6.5625Y-2.2813
X6.1875Y-1.5313
X0.9375Y-1.5313
X6.75Y-0.7813
X2.8125Y-2.7063
X3.5625Y-3.0313
X4.3125Y-2.7063
X7.6875Y-1.5313
X2.25Y-0.7813
X0.0Y-0.7813
X0.75Y-0.7813
X8.1563Y-3.0313
X7.5Y-0.7813
X6.9375Y-1.5313
X3.75Y-0.7813
X3.9375Y-1.5313
X2.4375Y-1.5313
X10.125Y-2.2813
X9.1875Y-1.5313
X1.5Y-0.7813
X7.3125Y-2.2813
X8.4375Y-1.5313
X1.9688Y-3.0312
X5.8125Y-2.2813
X6.0Y-0.7813
X10.0313Y-3.0313
X1.6875Y-1.5313
X9.0938Y-3.0313
X1.0312Y-3.0313
X0.0938Y-1.5312
X9.9375Y-0.7813
X4.6875Y-1.5313
X3.5625Y-2.2813
T0
M30
